M48
INCH
T01C0.012008
%
G05
G90
T01
X4.2Y1.64
X2.195Y1.68
X3.05Y1.055
X3.415Y1.055
X4.055Y2.02
X3.385Y1.015
X3.27Y1.015
X4.395Y2.355
X0.62Y1.8525
X0.62Y1.8275
X0.62Y1.8025
X0.62Y1.7775
X0.645Y1.8525
X0.645Y1.8275
X0.645Y1.8025
X0.645Y1.7775
X0.67Y1.8525
X0.67Y1.8275
X0.67Y1.8025
X0.67Y1.7775
X0.595Y1.8525
X0.595Y1.8275
X0.595Y1.8025
X0.595Y1.7775
X0.318326Y1.486713
X0.293325Y1.486713
X0.293325Y1.461713
X0.318326Y1.461713
X0.293325Y1.436713
X0.318326Y1.436713
X0.293325Y1.411713
X0.318326Y1.411713
X0.4075Y1.31
X0.3825Y1.31
X0.3575Y1.31
X0.3325Y1.31
X0.3325Y1.285
X0.3325Y1.26
X0.3575Y1.26
X0.3575Y1.285
X0.3825Y1.26
X0.3825Y1.285
X0.4075Y1.26
X0.4075Y1.285
X0.08Y1.1975
X0.08Y1.2225
X0.08Y1.2475
X0.08Y1.2725
X0.03Y1.2725
X0.03Y1.2475
X0.055Y1.2475
X0.03Y1.2225
X0.055Y1.2225
X0.03Y1.1975
X0.055Y1.1975
X0.425Y2.1425
X0.425Y2.1675
X0.425Y2.1925
X0.425Y2.2175
X0.4Y2.2175
X0.375Y2.2175
X0.375Y2.1925
X0.4Y2.1925
X0.375Y2.1675
X0.4Y2.1675
X0.375Y2.1425
X0.4Y2.1425
X0.505Y2.1425
X0.505Y2.1675
X0.505Y2.1925
X0.505Y2.2175
X0.455Y2.2175
X0.455Y2.1925
X0.48Y2.1925
X0.455Y2.1675
X0.48Y2.1675
X0.455Y2.1425
X0.48Y2.1425
X0.05534Y1.615
X0.495Y1.485
X0.265Y1.15
X0.343325Y1.411713
X0.343325Y1.436713
X0.343325Y1.461713
X0.343325Y1.486713
M30