;TYPE=PLATED
;Layer: PTH_Through
;EasyEDA Pro Client v2.2.47.7, 2026-05-13 08:52:05
;Gerber Generator version 0.3
M48
INCH,LZ,000.000000
;Hole size 1 = 0.012008 INCH
T01C0.012008
;Hole size 2 = 0.039370 INCH
T02C0.039370
;Hole size 3 = 0.041338 INCH
T03C0.041338
;Hole size 4 = 0.043308 INCH
T04C0.043308
%
G05
G90
T01
X4.2Y1.64
X2.195Y1.68
X3.05Y1.055
X3.415Y1.055
X4.055Y2.02
X3.385Y1.015
X3.27Y1.015
X4.395Y2.355
X0.62Y1.8525
X0.62Y1.8275
X0.62Y1.8025
X0.62Y1.7775
X0.645Y1.8525
X0.645Y1.8275
X0.645Y1.8025
X0.645Y1.7775
X0.67Y1.8525
X0.67Y1.8275
X0.67Y1.8025
X0.67Y1.7775
X0.595Y1.8525
X0.595Y1.8275
X0.595Y1.8025
X0.595Y1.7775
X0.318326Y1.486713
X0.293325Y1.486713
X0.293325Y1.461713
X0.318326Y1.461713
X0.293325Y1.436713
X0.318326Y1.436713
X0.293325Y1.411713
X0.318326Y1.411713
X0.4075Y1.31
X0.3825Y1.31
X0.3575Y1.31
X0.3325Y1.31
X0.3325Y1.285
X0.3325Y1.26
X0.3575Y1.26
X0.3575Y1.285
X0.3825Y1.26
X0.3825Y1.285
X0.4075Y1.26
X0.4075Y1.285
X0.08Y1.1975
X0.08Y1.2225
X0.08Y1.2475
X0.08Y1.2725
X0.03Y1.2725
X0.03Y1.2475
X0.055Y1.2475
X0.03Y1.2225
X0.055Y1.2225
X0.03Y1.1975
X0.055Y1.1975
X0.425Y2.1425
X0.425Y2.1675
X0.425Y2.1925
X0.425Y2.2175
X0.4Y2.2175
X0.375Y2.2175
X0.375Y2.1925
X0.4Y2.1925
X0.375Y2.1675
X0.4Y2.1675
X0.375Y2.1425
X0.4Y2.1425
X0.505Y2.1425
X0.505Y2.1675
X0.505Y2.1925
X0.505Y2.2175
X0.455Y2.2175
X0.455Y2.1925
X0.48Y2.1925
X0.455Y2.1675
X0.48Y2.1675
X0.455Y2.1425
X0.48Y2.1425
X0.05534Y1.615
X0.495Y1.485
X0.265Y1.15
X0.343325Y1.411713
X0.343325Y1.436713
X0.343325Y1.461713
X0.343325Y1.486713
T02
X0.215Y0.125
X0.215Y0.225
T03
X2.1Y0.265
X2.0Y0.265
X1.9Y0.265
X1.8Y0.265
X1.7Y0.265
X1.6Y0.265
X1.5Y0.265
X1.4Y0.265
X1.3Y0.265
X1.2Y0.265
X1.1Y0.265
X1.0Y0.265
X3.3Y0.265
X3.2Y0.265
X3.1Y0.265
X3.0Y0.265
X2.9Y0.265
X2.8Y0.265
X2.7Y0.265
X2.6Y0.265
X2.5Y0.265
X2.4Y0.265
X2.3Y0.265
X2.2Y0.265
X2.1Y0.165
X2.0Y0.165
X1.9Y0.165
X1.8Y0.165
X1.7Y0.165
X1.6Y0.165
X1.5Y0.165
X1.4Y0.165
X1.3Y0.165
X1.2Y0.165
X1.1Y0.165
X1.0Y0.165
X3.3Y0.165
X3.2Y0.165
X3.1Y0.165
X3.0Y0.165
X2.9Y0.165
X2.8Y0.165
X2.7Y0.165
X2.6Y0.165
X2.5Y0.165
X2.4Y0.165
X2.3Y0.165
X2.2Y0.165
X2.1Y0.065
X2.0Y0.065
X1.9Y0.065
X1.8Y0.065
X1.7Y0.065
X1.6Y0.065
X1.5Y0.065
X1.4Y0.065
X1.3Y0.065
X1.2Y0.065
X1.1Y0.065
X1.0Y0.065
X3.3Y0.065
X3.2Y0.065
X3.1Y0.065
X3.0Y0.065
X2.9Y0.065
X2.8Y0.065
X2.7Y0.065
X2.6Y0.065
X2.5Y0.065
X2.4Y0.065
X2.3Y0.065
X2.2Y0.065
X0.924792Y2.621407
X0.924792Y2.521407
X0.924792Y2.421407
X0.924792Y2.321407
X0.924792Y2.221407
X0.924792Y2.121407
X0.924792Y2.021407
X0.924792Y1.921407
X0.924792Y1.821407
X0.924792Y1.721407
X0.924792Y1.621407
X0.924792Y1.521407
X0.826407Y2.620207
X0.826407Y2.520207
X0.826407Y2.420207
X0.826407Y2.320207
X0.826407Y2.220207
X0.826407Y2.120207
X0.826407Y2.020207
X0.826407Y1.920207
X0.826407Y1.820207
X0.826407Y1.720207
X0.826407Y1.620207
X0.826407Y1.520207
X2.2Y3.695
X2.1Y3.695
X2.0Y3.695
X1.9Y3.695
X1.8Y3.695
X1.7Y3.695
X1.6Y3.695
X1.5Y3.695
X1.4Y3.695
X1.3Y3.695
X1.2Y3.695
X1.1Y3.695
X1.0Y3.695
X2.2Y3.795
X2.1Y3.795
X2.0Y3.795
X1.9Y3.795
X1.8Y3.795
X1.7Y3.795
X1.6Y3.795
X1.5Y3.795
X1.4Y3.795
X1.3Y3.795
X1.2Y3.795
X1.1Y3.795
X1.0Y3.795
X2.2Y3.895
X2.1Y3.895
X2.0Y3.895
X1.9Y3.895
X1.8Y3.895
X1.7Y3.895
X1.6Y3.895
X1.5Y3.895
X1.4Y3.895
X1.3Y3.895
X1.2Y3.895
X1.1Y3.895
X1.0Y3.895
T04
X3.6Y0.265
X3.5Y0.265
X3.4Y0.265
X3.6Y0.165
X3.5Y0.165
X3.4Y0.165
X4.685Y2.215
X4.585Y2.215
X4.685Y2.115
X4.585Y2.115
X4.685Y2.015
X4.585Y2.015
X4.685Y1.915
X4.585Y1.915
X4.685Y1.815
X4.585Y1.815
X4.685Y1.715
X4.585Y1.715
X4.685Y1.615
X4.585Y1.615
X4.685Y1.515
X4.585Y1.515
X4.685Y1.415
X4.585Y1.415
X4.685Y1.315
X4.585Y1.315
X1.59Y2.585
X1.59Y2.685
X1.795Y2.59
X1.795Y2.49
X1.795Y2.39
X1.795Y2.29
X1.795Y2.19
X1.795Y2.09
X1.795Y1.99
X1.795Y1.89
X1.795Y1.79
X1.795Y1.69
X1.795Y1.59
X1.795Y1.49
X1.795Y1.39
X1.795Y1.29
X1.795Y1.19
X1.795Y1.09
X1.9Y0.79
X2.0Y0.79
X2.1Y0.79
X2.2Y0.79
X2.3Y0.79
X2.4Y0.79
X2.5Y0.79
X2.6Y0.79
X2.7Y0.79
X2.8Y0.79
X2.9Y0.79
X3.0Y0.79
X3.1Y0.79
X3.2Y0.79
X3.3Y0.79
X3.4Y0.79
X3.575Y1.09
X3.575Y1.19
X3.575Y1.29
X3.575Y1.39
X3.575Y1.49
X3.575Y1.59
X3.575Y1.69
X3.575Y1.79
X3.575Y1.89
X3.575Y1.99
X3.575Y2.09
X3.575Y2.19
X3.575Y2.29
X3.575Y2.39
X3.575Y2.49
X3.575Y2.59
X3.4Y2.89
X3.3Y2.89
X3.2Y2.89
X3.1Y2.89
X3.0Y2.89
X2.9Y2.89
X2.8Y2.89
X2.7Y2.89
X2.6Y2.89
X2.5Y2.89
X2.4Y2.89
X2.3Y2.89
X2.2Y2.89
X2.1Y2.89
X2.0Y2.89
X1.9Y2.89
X2.3Y3.695
X2.4Y3.695
X2.5Y3.695
X2.6Y3.695
X2.7Y3.695
X2.8Y3.695
X2.9Y3.695
X3.0Y3.695
X3.1Y3.695
X3.2Y3.695
X3.3Y3.695
X3.4Y3.695
X3.5Y3.695
X3.6Y3.695
X2.3Y3.795
X2.4Y3.795
X2.5Y3.795
X2.6Y3.795
X2.7Y3.795
X2.8Y3.795
X2.9Y3.795
X3.0Y3.795
X3.1Y3.795
X3.2Y3.795
X3.3Y3.795
X3.4Y3.795
X3.5Y3.795
X3.6Y3.795
X2.3Y3.895
X2.4Y3.895
X2.5Y3.895
X2.6Y3.895
X2.7Y3.895
X2.8Y3.895
X2.9Y3.895
X3.0Y3.895
X3.1Y3.895
X3.2Y3.895
X3.3Y3.895
X3.4Y3.895
X3.5Y3.895
X3.6Y3.895
M30