M48
INCH
T01C0.040008
%
G05
G90
T01
X0.215Y0.125
X0.215Y0.225
X2.1Y0.265
X2.0Y0.265
X1.9Y0.265
X1.8Y0.265
X1.7Y0.265
X1.6Y0.265
X1.5Y0.265
X1.4Y0.265
X1.3Y0.265
X1.2Y0.265
X1.1Y0.265
X1.0Y0.265
X3.3Y0.265
X3.2Y0.265
X3.1Y0.265
X3.0Y0.265
X2.9Y0.265
X2.8Y0.265
X2.7Y0.265
X2.6Y0.265
X2.5Y0.265
X2.4Y0.265
X2.3Y0.265
X2.2Y0.265
X2.1Y0.165
X2.0Y0.165
X1.9Y0.165
X1.8Y0.165
X1.7Y0.165
X1.6Y0.165
X1.5Y0.165
X1.4Y0.165
X1.3Y0.165
X1.2Y0.165
X1.1Y0.165
X1.0Y0.165
X3.3Y0.165
X3.2Y0.165
X3.1Y0.165
X3.0Y0.165
X2.9Y0.165
X2.8Y0.165
X2.7Y0.165
X2.6Y0.165
X2.5Y0.165
X2.4Y0.165
X2.3Y0.165
X2.2Y0.165
X2.1Y0.065
X2.0Y0.065
X1.9Y0.065
X1.8Y0.065
X1.7Y0.065
X1.6Y0.065
X1.5Y0.065
X1.4Y0.065
X1.3Y0.065
X1.2Y0.065
X1.1Y0.065
X1.0Y0.065
X3.3Y0.065
X3.2Y0.065
X3.1Y0.065
X3.0Y0.065
X2.9Y0.065
X2.8Y0.065
X2.7Y0.065
X2.6Y0.065
X2.5Y0.065
X2.4Y0.065
X2.3Y0.065
X2.2Y0.065
X0.924792Y2.621407
X0.924792Y2.521407
X0.924792Y2.421407
X0.924792Y2.321407
X0.924792Y2.221407
X0.924792Y2.121407
X0.924792Y2.021407
X0.924792Y1.921407
X0.924792Y1.821407
X0.924792Y1.721407
X0.924792Y1.621407
X0.924792Y1.521407
X0.826407Y2.620207
X0.826407Y2.520207
X0.826407Y2.420207
X0.826407Y2.320207
X0.826407Y2.220207
X0.826407Y2.120207
X0.826407Y2.020207
X0.826407Y1.920207
X0.826407Y1.820207
X0.826407Y1.720207
X0.826407Y1.620207
X0.826407Y1.520207
X2.2Y3.695
X2.1Y3.695
X2.0Y3.695
X1.9Y3.695
X1.8Y3.695
X1.7Y3.695
X1.6Y3.695
X1.5Y3.695
X1.4Y3.695
X1.3Y3.695
X1.2Y3.695
X1.1Y3.695
X1.0Y3.695
X2.2Y3.795
X2.1Y3.795
X2.0Y3.795
X1.9Y3.795
X1.8Y3.795
X1.7Y3.795
X1.6Y3.795
X1.5Y3.795
X1.4Y3.795
X1.3Y3.795
X1.2Y3.795
X1.1Y3.795
X1.0Y3.795
X2.2Y3.895
X2.1Y3.895
X2.0Y3.895
X1.9Y3.895
X1.8Y3.895
X1.7Y3.895
X1.6Y3.895
X1.5Y3.895
X1.4Y3.895
X1.3Y3.895
X1.2Y3.895
X1.1Y3.895
X1.0Y3.895
X3.6Y0.265
X3.5Y0.265
X3.4Y0.265
X3.6Y0.165
X3.5Y0.165
X3.4Y0.165
X4.685Y2.215
X4.585Y2.215
X4.685Y2.115
X4.585Y2.115
X4.685Y2.015
X4.585Y2.015
X4.685Y1.915
X4.585Y1.915
X4.685Y1.815
X4.585Y1.815
X4.685Y1.715
X4.585Y1.715
X4.685Y1.615
X4.585Y1.615
X4.685Y1.515
X4.585Y1.515
X4.685Y1.415
X4.585Y1.415
X4.685Y1.315
X4.585Y1.315
X1.59Y2.585
X1.59Y2.685
X1.795Y2.59
X1.795Y2.49
X1.795Y2.39
X1.795Y2.29
X1.795Y2.19
X1.795Y2.09
X1.795Y1.99
X1.795Y1.89
X1.795Y1.79
X1.795Y1.69
X1.795Y1.59
X1.795Y1.49
X1.795Y1.39
X1.795Y1.29
X1.795Y1.19
X1.795Y1.09
X1.9Y0.79
X2.0Y0.79
X2.1Y0.79
X2.2Y0.79
X2.3Y0.79
X2.4Y0.79
X2.5Y0.79
X2.6Y0.79
X2.7Y0.79
X2.8Y0.79
X2.9Y0.79
X3.0Y0.79
X3.1Y0.79
X3.2Y0.79
X3.3Y0.79
X3.4Y0.79
X3.575Y1.09
X3.575Y1.19
X3.575Y1.29
X3.575Y1.39
X3.575Y1.49
X3.575Y1.59
X3.575Y1.69
X3.575Y1.79
X3.575Y1.89
X3.575Y1.99
X3.575Y2.09
X3.575Y2.19
X3.575Y2.29
X3.575Y2.39
X3.575Y2.49
X3.575Y2.59
X3.4Y2.89
X3.3Y2.89
X3.2Y2.89
X3.1Y2.89
X3.0Y2.89
X2.9Y2.89
X2.8Y2.89
X2.7Y2.89
X2.6Y2.89
X2.5Y2.89
X2.4Y2.89
X2.3Y2.89
X2.2Y2.89
X2.1Y2.89
X2.0Y2.89
X1.9Y2.89
X2.3Y3.695
X2.4Y3.695
X2.5Y3.695
X2.6Y3.695
X2.7Y3.695
X2.8Y3.695
X2.9Y3.695
X3.0Y3.695
X3.1Y3.695
X3.2Y3.695
X3.3Y3.695
X3.4Y3.695
X3.5Y3.695
X3.6Y3.695
X2.3Y3.795
X2.4Y3.795
X2.5Y3.795
X2.6Y3.795
X2.7Y3.795
X2.8Y3.795
X2.9Y3.795
X3.0Y3.795
X3.1Y3.795
X3.2Y3.795
X3.3Y3.795
X3.4Y3.795
X3.5Y3.795
X3.6Y3.795
X2.3Y3.895
X2.4Y3.895
X2.5Y3.895
X2.6Y3.895
X2.7Y3.895
X2.8Y3.895
X2.9Y3.895
X3.0Y3.895
X3.1Y3.895
X3.2Y3.895
X3.3Y3.895
X3.4Y3.895
X3.5Y3.895
X3.6Y3.895
M30