G04 Layer: DrillDrawingLayer*
G04 EasyEDA Pro v2.2.47.7, 2026-05-13 08:52:05*
G04 Gerber Generator version 0.3*
G04 Scale: 100 percent, Rotated: No, Reflected: No*
G04 Dimensions in inches*
G04 Leading zeros omitted, absolute positions, 3 integers and 6 decimals*
G04 Generated by custom config*
G04 Object Configs: Pad,Via,Track,Text,Image,Dimension,BoardOutline,BoardCutout,CopperFilled,SolidRegion,FPCStiffener,Line,PlaneZone,ComponentProperty,ComponentSilkscreen,TearDrop*
G04 Layer Configs: 1,2,11,56*
G04 Copper Areas: 0*
%FSLAX36Y36*%
%MOIN*%
%AMIconRect*4,1,4,0.011025,-0.011025,-0.011025,-0.011025,-0.011025,0.011025,0.011025,0.011025,0.011025,-0.011025,0*4,0,4,0.009187,-0.009187,0.009187,0.009187,-0.009187,0.009187,-0.009187,-0.009187,0.009187,-0.009187,0*%
%AMIconTriangle*4,1,3,-0.013371,0.009469,0.013371,0.009469,0,-0.014917,-0.013371,0.009469,0*4,0,3,-0.010461,0.00764,0,-0.010766,0.010483,0.00764,-0.010461,0.00764,0*%
%AMIconStar6*4,1,12,0.004752,0.008225,0.011754,0.006801,0.009502,0,0.011754,-0.006775,0.004752,-0.008199,0,-0.013548,-0.004728,-0.008199,-0.011756,-0.006775,-0.009478,0,-0.011756,0.006775,-0.004728,0.008225,0,0.013548,0.004752,0.008225,0*4,0,12,-0.000018,0.010768,-0.003546,0.006762,-0.009353,0.005384,-0.007626,-0.000294,-0.009353,-0.005402,-0.003546,-0.006762,-0.000018,-0.010786,0.003546,-0.006762,0.009353,-0.005402,0.007644,0.000276,0.009353,0.005402,0.003546,0.006744,-0.000018,0.010768,0*%
%ADD10IconRect*%
%ADD11C,0.024255X0.02058*%
%ADD12IconTriangle*%
%ADD13IconStar6*%
G75*


G04 Drill Drawing Start*
G54D10*
G01X215000Y125000D03*
G01X215000Y225000D03*
G54D11*
G01X30000Y1197500D03*
G01X30000Y1222500D03*
G01X30000Y1247500D03*
G01X30000Y1272500D03*
G01X55000Y1197500D03*
G01X55000Y1222500D03*
G01X55000Y1247500D03*
G01X55340Y1615000D03*
G01X80000Y1197500D03*
G01X80000Y1222500D03*
G01X80000Y1247500D03*
G01X80000Y1272500D03*
G01X265000Y1150000D03*
G01X293326Y1411713D03*
G01X293326Y1436713D03*
G01X293326Y1461713D03*
G01X293326Y1486713D03*
G01X318326Y1411713D03*
G01X318326Y1436713D03*
G01X318326Y1461713D03*
G01X318326Y1486713D03*
G01X332500Y1260000D03*
G01X332500Y1285000D03*
G01X332500Y1310000D03*
G01X343326Y1411713D03*
G01X343326Y1436713D03*
G01X343326Y1461713D03*
G01X343326Y1486713D03*
G01X357500Y1260000D03*
G01X357500Y1285000D03*
G01X357500Y1310000D03*
G01X375000Y2142500D03*
G01X375000Y2167500D03*
G01X375000Y2192500D03*
G01X375000Y2217500D03*
G01X382500Y1260000D03*
G01X382500Y1285000D03*
G01X382500Y1310000D03*
G01X400000Y2142500D03*
G01X400000Y2167500D03*
G01X400000Y2192500D03*
G01X400000Y2217500D03*
G01X407500Y1260000D03*
G01X407500Y1285000D03*
G01X407500Y1310000D03*
G01X425000Y2142500D03*
G01X425000Y2167500D03*
G01X425000Y2192500D03*
G01X425000Y2217500D03*
G01X455000Y2142500D03*
G01X455000Y2167500D03*
G01X455000Y2192500D03*
G01X455000Y2217500D03*
G01X480000Y2142500D03*
G01X480000Y2167500D03*
G01X480000Y2192500D03*
G01X495000Y1485000D03*
G01X505000Y2142500D03*
G01X505000Y2167500D03*
G01X505000Y2192500D03*
G01X505000Y2217500D03*
G01X595000Y1777500D03*
G01X595000Y1802500D03*
G01X595000Y1827500D03*
G01X595000Y1852500D03*
G01X620000Y1777500D03*
G01X620000Y1802500D03*
G01X620000Y1827500D03*
G01X620000Y1852500D03*
G01X645000Y1777500D03*
G01X645000Y1802500D03*
G01X645000Y1827500D03*
G01X645000Y1852500D03*
G01X670000Y1777500D03*
G01X670000Y1802500D03*
G01X670000Y1827500D03*
G01X670000Y1852500D03*
G01X2195000Y1680000D03*
G01X3050000Y1055000D03*
G01X3270000Y1015000D03*
G01X3385000Y1015000D03*
G01X3415000Y1055000D03*
G01X4055000Y2020000D03*
G01X4200000Y1640000D03*
G01X4395000Y2355000D03*
G54D12*
G01X1590000Y2585000D03*
G01X1590000Y2685000D03*
G01X1795000Y1090000D03*
G01X1795000Y1190000D03*
G01X1795000Y1290000D03*
G01X1795000Y1390000D03*
G01X1795000Y1490000D03*
G01X1795000Y1590000D03*
G01X1795000Y1690000D03*
G01X1795000Y1790000D03*
G01X1795000Y1890000D03*
G01X1795000Y1990000D03*
G01X1795000Y2090000D03*
G01X1795000Y2190000D03*
G01X1795000Y2290000D03*
G01X1795000Y2390000D03*
G01X1795000Y2490000D03*
G01X1795000Y2590000D03*
G01X1900000Y790000D03*
G01X1900000Y2890000D03*
G01X2000000Y790000D03*
G01X2000000Y2890000D03*
G01X2100000Y790000D03*
G01X2100000Y2890000D03*
G01X2200000Y790000D03*
G01X2200000Y2890000D03*
G01X2300000Y790000D03*
G01X2300000Y2890000D03*
G01X2300000Y3695000D03*
G01X2300000Y3795000D03*
G01X2300000Y3895000D03*
G01X2400000Y790000D03*
G01X2400000Y2890000D03*
G01X2400000Y3695000D03*
G01X2400000Y3795000D03*
G01X2400000Y3895000D03*
G01X2500000Y790000D03*
G01X2500000Y2890000D03*
G01X2500000Y3695000D03*
G01X2500000Y3795000D03*
G01X2500000Y3895000D03*
G01X2600000Y790000D03*
G01X2600000Y2890000D03*
G01X2600000Y3695000D03*
G01X2600000Y3795000D03*
G01X2600000Y3895000D03*
G01X2700000Y790000D03*
G01X2700000Y2890000D03*
G01X2700000Y3695000D03*
G01X2700000Y3795000D03*
G01X2700000Y3895000D03*
G01X2800000Y790000D03*
G01X2800000Y2890000D03*
G01X2800000Y3695000D03*
G01X2800000Y3795000D03*
G01X2800000Y3895000D03*
G01X2900000Y790000D03*
G01X2900000Y2890000D03*
G01X2900000Y3695000D03*
G01X2900000Y3795000D03*
G01X2900000Y3895000D03*
G01X3000000Y790000D03*
G01X3000000Y2890000D03*
G01X3000000Y3695000D03*
G01X3000000Y3795000D03*
G01X3000000Y3895000D03*
G01X3100000Y790000D03*
G01X3100000Y2890000D03*
G01X3100000Y3695000D03*
G01X3100000Y3795000D03*
G01X3100000Y3895000D03*
G01X3200000Y790000D03*
G01X3200000Y2890000D03*
G01X3200000Y3695000D03*
G01X3200000Y3795000D03*
G01X3200000Y3895000D03*
G01X3300000Y790000D03*
G01X3300000Y2890000D03*
G01X3300000Y3695000D03*
G01X3300000Y3795000D03*
G01X3300000Y3895000D03*
G01X3400000Y165000D03*
G01X3400000Y265000D03*
G01X3400000Y790000D03*
G01X3400000Y2890000D03*
G01X3400000Y3695000D03*
G01X3400000Y3795000D03*
G01X3400000Y3895000D03*
G01X3500000Y165000D03*
G01X3500000Y265000D03*
G01X3500000Y3695000D03*
G01X3500000Y3795000D03*
G01X3500000Y3895000D03*
G01X3575000Y1090000D03*
G01X3575000Y1190000D03*
G01X3575000Y1290000D03*
G01X3575000Y1390000D03*
G01X3575000Y1490000D03*
G01X3575000Y1590000D03*
G01X3575000Y1690000D03*
G01X3575000Y1790000D03*
G01X3575000Y1890000D03*
G01X3575000Y1990000D03*
G01X3575000Y2090000D03*
G01X3575000Y2190000D03*
G01X3575000Y2290000D03*
G01X3575000Y2390000D03*
G01X3575000Y2490000D03*
G01X3575000Y2590000D03*
G01X3600000Y165000D03*
G01X3600000Y265000D03*
G01X3600000Y3695000D03*
G01X3600000Y3795000D03*
G01X3600000Y3895000D03*
G01X4585000Y1315000D03*
G01X4585000Y1415000D03*
G01X4585000Y1515000D03*
G01X4585000Y1615000D03*
G01X4585000Y1715000D03*
G01X4585000Y1815000D03*
G01X4585000Y1915000D03*
G01X4585000Y2015000D03*
G01X4585000Y2115000D03*
G01X4585000Y2215000D03*
G01X4685000Y1315000D03*
G01X4685000Y1415000D03*
G01X4685000Y1515000D03*
G01X4685000Y1615000D03*
G01X4685000Y1715000D03*
G01X4685000Y1815000D03*
G01X4685000Y1915000D03*
G01X4685000Y2015000D03*
G01X4685000Y2115000D03*
G01X4685000Y2215000D03*
G54D13*
G01X826407Y1520207D03*
G01X826407Y1620207D03*
G01X826407Y1720207D03*
G01X826407Y1820207D03*
G01X826407Y1920207D03*
G01X826407Y2020207D03*
G01X826407Y2120207D03*
G01X826407Y2220207D03*
G01X826407Y2320207D03*
G01X826407Y2420207D03*
G01X826407Y2520207D03*
G01X826407Y2620207D03*
G01X924792Y1521407D03*
G01X924792Y1621407D03*
G01X924792Y1721407D03*
G01X924792Y1821407D03*
G01X924792Y1921407D03*
G01X924792Y2021407D03*
G01X924792Y2121407D03*
G01X924792Y2221407D03*
G01X924792Y2321407D03*
G01X924792Y2421407D03*
G01X924792Y2521407D03*
G01X924792Y2621407D03*
G01X1000000Y65000D03*
G01X1000000Y165000D03*
G01X1000000Y265000D03*
G01X1000000Y3795000D03*
G01X1000000Y3895000D03*
G01X1000000Y3695000D03*
G01X1100000Y65000D03*
G01X1100000Y165000D03*
G01X1100000Y265000D03*
G01X1100000Y3795000D03*
G01X1100000Y3895000D03*
G01X1100000Y3695000D03*
G01X1200000Y65000D03*
G01X1200000Y165000D03*
G01X1200000Y265000D03*
G01X1200000Y3795000D03*
G01X1200000Y3895000D03*
G01X1200000Y3695000D03*
G01X1300000Y65000D03*
G01X1300000Y165000D03*
G01X1300000Y265000D03*
G01X1300000Y3695000D03*
G01X1300000Y3795000D03*
G01X1300000Y3895000D03*
G01X1400000Y65000D03*
G01X1400000Y165000D03*
G01X1400000Y265000D03*
G01X1400000Y3695000D03*
G01X1400000Y3795000D03*
G01X1400000Y3895000D03*
G01X1500000Y65000D03*
G01X1500000Y165000D03*
G01X1500000Y265000D03*
G01X1500000Y3695000D03*
G01X1500000Y3795000D03*
G01X1500000Y3895000D03*
G01X1600000Y65000D03*
G01X1600000Y165000D03*
G01X1600000Y265000D03*
G01X1600000Y3695000D03*
G01X1600000Y3795000D03*
G01X1600000Y3895000D03*
G01X1700000Y65000D03*
G01X1700000Y165000D03*
G01X1700000Y265000D03*
G01X1700000Y3695000D03*
G01X1700000Y3795000D03*
G01X1700000Y3895000D03*
G01X1800000Y65000D03*
G01X1800000Y165000D03*
G01X1800000Y265000D03*
G01X1800000Y3695000D03*
G01X1800000Y3795000D03*
G01X1800000Y3895000D03*
G01X1900000Y65000D03*
G01X1900000Y165000D03*
G01X1900000Y265000D03*
G01X1900000Y3695000D03*
G01X1900000Y3795000D03*
G01X1900000Y3895000D03*
G01X2000000Y65000D03*
G01X2000000Y165000D03*
G01X2000000Y265000D03*
G01X2000000Y3695000D03*
G01X2000000Y3795000D03*
G01X2000000Y3895000D03*
G01X2100000Y65000D03*
G01X2100000Y165000D03*
G01X2100000Y265000D03*
G01X2100000Y3695000D03*
G01X2100000Y3795000D03*
G01X2100000Y3895000D03*
G01X2200000Y65000D03*
G01X2200000Y165000D03*
G01X2200000Y265000D03*
G01X2200000Y3695000D03*
G01X2200000Y3795000D03*
G01X2200000Y3895000D03*
G01X2300000Y65000D03*
G01X2300000Y165000D03*
G01X2300000Y265000D03*
G01X2400000Y65000D03*
G01X2400000Y165000D03*
G01X2400000Y265000D03*
G01X2500000Y65000D03*
G01X2500000Y165000D03*
G01X2500000Y265000D03*
G01X2600000Y65000D03*
G01X2600000Y165000D03*
G01X2600000Y265000D03*
G01X2700000Y65000D03*
G01X2700000Y165000D03*
G01X2700000Y265000D03*
G01X2800000Y65000D03*
G01X2800000Y165000D03*
G01X2800000Y265000D03*
G01X2900000Y65000D03*
G01X2900000Y165000D03*
G01X2900000Y265000D03*
G01X3000000Y65000D03*
G01X3000000Y165000D03*
G01X3000000Y265000D03*
G01X3100000Y65000D03*
G01X3100000Y165000D03*
G01X3100000Y265000D03*
G01X3200000Y65000D03*
G01X3200000Y165000D03*
G01X3200000Y265000D03*
G01X3300000Y65000D03*
G01X3300000Y165000D03*
G01X3300000Y265000D03*
G04 Drill Drawing End*

M02*

