G04 Layer: TopLayer*
G04 EasyEDA Pro v2.2.47.7, 2026-05-13 08:52:05*
G04 Gerber Generator version 0.3*
G04 Scale: 100 percent, Rotated: No, Reflected: No*
G04 Dimensions in inches*
G04 Leading zeros omitted, absolute positions, 3 integers and 6 decimals*
G04 Generated by custom config*
G04 Object Configs: Pad,Via,Track,Text,Image,Dimension,BoardOutline,BoardCutout,CopperFilled,SolidRegion,FPCStiffener,Line,PlaneZone,ComponentProperty,ComponentSilkscreen,TearDrop*
G04 Layer Configs: 1,2,11,56*
G04 Copper Areas: 0*
%FSLAX36Y36*%
%MOIN*%
%ADD10R,0.066929X0.066929*%
%ADD11C,0.066929*%
%ADD12R,0.102047X0.086909*%
%ADD13R,0.035433X0.031496*%
%ADD14R,0.031496X0.035433*%
%ADD15R,0.07874X0.07874*%
%ADD16C,0.07874*%
%ADD17R,0.0482X0.062992*%
%ADD18R,0.03937X0.062992*%
%ADD19R,0.070866X0.066929*%
%ADD20R,0.083465X0.055118*%
%ADD21R,0.03937X0.049213*%
%ADD22R,0.038528X0.094845*%
%ADD23R,0.218441X0.224845*%
%ADD24R,0.034016X0.031751*%
%ADD25R,0.031751X0.034016*%
%ADD26O,0.073425X0.024803*%
%ADD27C,0.070866*%
%ADD28R,0.070866X0.070866*%
%ADD29C,0.06*%
%ADD30R,0.06X0.06*%
%ADD31R,0.062992X0.062992*%
%ADD32C,0.062992*%
%ADD33C,0.03937*%
%ADD34C,0.024016*%
%ADD35C,0.019685*%
%ADD36C,0.059055*%
%ADD37C,0.023622*%
%ADD38C,0.015748*%
%ADD39C,0.031496*%
G75*


G04 PolygonModel Start*
G36*
G01X125000Y2290000D02*
G01X755000Y2290000D01*
G01X755000Y2046877D01*
G01X463123Y2046877D01*
G01X460000Y2050000D01*
G01X460000Y1935694D01*
G01X125000Y1935694D01*
G01X125000Y2290000D01*
G37*
G36*
G01X460000Y1866342D02*
G01X123658Y1866342D01*
G01X120000Y1870000D01*
G01X120000Y1662322D01*
G01X457322Y1662322D01*
G01X460000Y1665000D01*
G01X460000Y1866342D01*
G37*
G36*
G01X501558Y2005000D02*
G01X825813Y2005000D01*
G01X826407Y2004406D01*
G01X826407Y1620207D01*
G01X501558Y1620207D01*
G01X501558Y2005000D01*
G37*
G36*
G01X364472Y1515528D02*
G01X365000Y1515000D01*
G01X365000Y1398684D01*
G01X466316Y1398684D01*
G01X470000Y1395000D01*
G01X470000Y1190000D01*
G01X308670Y1190000D01*
G01X308670Y1326347D01*
G01X270000Y1326347D01*
G01X270000Y1515528D01*
G01X364472Y1515528D01*
G37*
G36*
G01X10000Y1305000D02*
G01X105000Y1305000D01*
G01X105000Y1375045D01*
G01X155000Y1375045D01*
G01X155000Y1152165D01*
G01X10000Y1152165D01*
G01X10000Y1305000D01*
G37*

G04 Pad Start*
G54D10*
G01X3600000Y265000D03*
G54D11*
G01X3500000Y265000D03*
G01X3400000Y265000D03*
G54D10*
G01X3600000Y165000D03*
G54D11*
G01X3500000Y165000D03*
G01X3400000Y165000D03*
G54D12*
G01X630337Y2208985D03*
G01X630337Y1932505D03*
G01X630000Y1426760D03*
G01X630000Y1703240D03*
G54D13*
G01X420000Y1682560D03*
G01X420000Y1627440D03*
G54D14*
G01X62440Y1425000D03*
G01X117560Y1425000D03*
G01X4742560Y1155000D03*
G01X4687440Y1155000D03*
G01X2027440Y925000D03*
G01X2082560Y925000D03*
G01X1947560Y1495000D03*
G01X1892440Y1495000D03*
G54D13*
G01X3300000Y887440D03*
G01X3300000Y942560D03*
G54D14*
G01X2032560Y2755000D03*
G01X1977440Y2755000D03*
G01X3422440Y2490000D03*
G01X3477560Y2490000D03*
G54D15*
G01X215000Y125000D03*
G54D16*
G01X215000Y225000D03*
G54D18*
G01X140039Y880000D03*
G01X269959Y880000D03*
G54D19*
G01X540787Y1811176D03*
G01X368147Y1811176D03*
G54D11*
G01X4685000Y2215000D03*
G01X4585000Y2215000D03*
G01X4685000Y2115000D03*
G01X4585000Y2115000D03*
G01X4685000Y2015000D03*
G01X4585000Y2015000D03*
G01X4685000Y1915000D03*
G01X4585000Y1915000D03*
G01X4685000Y1815000D03*
G01X4585000Y1815000D03*
G01X4685000Y1715000D03*
G01X4585000Y1715000D03*
G01X4685000Y1615000D03*
G01X4585000Y1615000D03*
G01X4685000Y1515000D03*
G01X4585000Y1515000D03*
G01X4685000Y1415000D03*
G01X4585000Y1415000D03*
G01X4685000Y1315000D03*
G54D10*
G01X4585000Y1315000D03*
G54D20*
G01X215000Y1964840D03*
G01X215000Y1805160D03*
G54D21*
G01X533308Y360004D03*
G01X446688Y360004D03*
G54D22*
G01X300706Y735971D03*
G01X120396Y735951D03*
G54D23*
G01X210556Y466381D03*
G54D24*
G01X445000Y554660D03*
G01X445000Y495340D03*
G54D25*
G01X119660Y1495000D03*
G01X60340Y1495000D03*
G01X514660Y1315000D03*
G01X455340Y1315000D03*
G01X65340Y1340000D03*
G01X124660Y1340000D03*
G01X114660Y1565000D03*
G01X55340Y1565000D03*
G54D24*
G01X530000Y554660D03*
G01X530000Y495340D03*
G54D25*
G01X132650Y1274536D03*
G01X191970Y1274536D03*
G54D24*
G01X265337Y1274196D03*
G01X265337Y1214876D03*
G01X4471648Y1343886D03*
G01X4471648Y1403206D03*
G01X4395000Y2175340D03*
G01X4395000Y2234660D03*
G54D25*
G01X3505340Y65000D03*
G01X3564660Y65000D03*
G01X3484660Y365000D03*
G01X3425340Y365000D03*
G54D26*
G01X425612Y1384996D03*
G01X425612Y1434996D03*
G01X425612Y1484996D03*
G01X425612Y1534996D03*
G01X214392Y1384996D03*
G01X214392Y1434996D03*
G01X214392Y1484996D03*
G01X214392Y1534996D03*
G54D27*
G01X1590000Y2585000D03*
G54D28*
G01X1590000Y2685000D03*
G01X1795000Y2590000D03*
G54D27*
G01X1795000Y2490000D03*
G01X1795000Y2390000D03*
G01X1795000Y2290000D03*
G01X1795000Y2190000D03*
G01X1795000Y2090000D03*
G01X1795000Y1990000D03*
G01X1795000Y1890000D03*
G01X1795000Y1790000D03*
G01X1795000Y1690000D03*
G01X1795000Y1590000D03*
G01X1795000Y1490000D03*
G01X1795000Y1390000D03*
G01X1795000Y1290000D03*
G01X1795000Y1190000D03*
G01X1795000Y1090000D03*
G54D28*
G01X1900000Y790000D03*
G54D27*
G01X2000000Y790000D03*
G01X2100000Y790000D03*
G01X2200000Y790000D03*
G01X2300000Y790000D03*
G01X2400000Y790000D03*
G01X2500000Y790000D03*
G01X2600000Y790000D03*
G01X2700000Y790000D03*
G01X2800000Y790000D03*
G01X2900000Y790000D03*
G01X3000000Y790000D03*
G01X3100000Y790000D03*
G01X3200000Y790000D03*
G01X3300000Y790000D03*
G01X3400000Y790000D03*
G54D28*
G01X3575000Y1090000D03*
G54D27*
G01X3575000Y1190000D03*
G01X3575000Y1290000D03*
G01X3575000Y1390000D03*
G01X3575000Y1490000D03*
G01X3575000Y1590000D03*
G01X3575000Y1690000D03*
G01X3575000Y1790000D03*
G01X3575000Y1890000D03*
G01X3575000Y1990000D03*
G01X3575000Y2090000D03*
G01X3575000Y2190000D03*
G01X3575000Y2290000D03*
G01X3575000Y2390000D03*
G01X3575000Y2490000D03*
G01X3575000Y2590000D03*
G54D28*
G01X3400000Y2890000D03*
G54D27*
G01X3300000Y2890000D03*
G01X3200000Y2890000D03*
G01X3100000Y2890000D03*
G01X3000000Y2890000D03*
G01X2900000Y2890000D03*
G01X2800000Y2890000D03*
G01X2700000Y2890000D03*
G01X2600000Y2890000D03*
G01X2500000Y2890000D03*
G01X2400000Y2890000D03*
G01X2300000Y2890000D03*
G01X2200000Y2890000D03*
G01X2100000Y2890000D03*
G01X2000000Y2890000D03*
G01X1900000Y2890000D03*
G54D29*
G01X2100000Y265000D03*
G01X2000000Y265000D03*
G01X1900000Y265000D03*
G01X1800000Y265000D03*
G01X1700000Y265000D03*
G01X1600000Y265000D03*
G01X1500000Y265000D03*
G01X1400000Y265000D03*
G01X1300000Y265000D03*
G01X1200000Y265000D03*
G01X1100000Y265000D03*
G54D30*
G01X1000000Y265000D03*
G54D29*
G01X3300000Y265000D03*
G01X3200000Y265000D03*
G01X3100000Y265000D03*
G01X3000000Y265000D03*
G01X2900000Y265000D03*
G01X2800000Y265000D03*
G01X2700000Y265000D03*
G01X2600000Y265000D03*
G01X2500000Y265000D03*
G01X2400000Y265000D03*
G01X2300000Y265000D03*
G54D30*
G01X2200000Y265000D03*
G54D27*
G01X2300000Y3695000D03*
G01X2400000Y3695000D03*
G01X2500000Y3695000D03*
G01X2600000Y3695000D03*
G01X2700000Y3695000D03*
G01X2800000Y3695000D03*
G01X2900000Y3695000D03*
G01X3000000Y3695000D03*
G01X3100000Y3695000D03*
G01X3200000Y3695000D03*
G01X3300000Y3695000D03*
G01X3400000Y3695000D03*
G01X3500000Y3695000D03*
G54D28*
G01X3600000Y3695000D03*
G54D29*
G01X2100000Y165000D03*
G01X2000000Y165000D03*
G01X1900000Y165000D03*
G01X1800000Y165000D03*
G01X1700000Y165000D03*
G01X1600000Y165000D03*
G01X1500000Y165000D03*
G01X1400000Y165000D03*
G01X1300000Y165000D03*
G01X1200000Y165000D03*
G01X1100000Y165000D03*
G54D30*
G01X1000000Y165000D03*
G54D29*
G01X3300000Y165000D03*
G01X3200000Y165000D03*
G01X3100000Y165000D03*
G01X3000000Y165000D03*
G01X2900000Y165000D03*
G01X2800000Y165000D03*
G01X2700000Y165000D03*
G01X2600000Y165000D03*
G01X2500000Y165000D03*
G01X2400000Y165000D03*
G01X2300000Y165000D03*
G54D30*
G01X2200000Y165000D03*
G54D29*
G01X2100000Y65000D03*
G01X2000000Y65000D03*
G01X1900000Y65000D03*
G01X1800000Y65000D03*
G01X1700000Y65000D03*
G01X1600000Y65000D03*
G01X1500000Y65000D03*
G01X1400000Y65000D03*
G01X1300000Y65000D03*
G01X1200000Y65000D03*
G01X1100000Y65000D03*
G54D30*
G01X1000000Y65000D03*
G54D29*
G01X3300000Y65000D03*
G01X3200000Y65000D03*
G01X3100000Y65000D03*
G01X3000000Y65000D03*
G01X2900000Y65000D03*
G01X2800000Y65000D03*
G01X2700000Y65000D03*
G01X2600000Y65000D03*
G01X2500000Y65000D03*
G01X2400000Y65000D03*
G01X2300000Y65000D03*
G54D30*
G01X2200000Y65000D03*
G54D29*
G01X924792Y2621407D03*
G01X924792Y2521407D03*
G01X924792Y2421407D03*
G01X924792Y2321407D03*
G01X924792Y2221407D03*
G01X924792Y2121407D03*
G01X924792Y2021407D03*
G01X924792Y1921407D03*
G01X924792Y1821407D03*
G01X924792Y1721407D03*
G01X924792Y1621407D03*
G54D30*
G01X924792Y1521407D03*
G54D29*
G01X826407Y2620207D03*
G01X826407Y2520207D03*
G01X826407Y2420207D03*
G01X826407Y2320207D03*
G01X826407Y2220207D03*
G01X826407Y2120207D03*
G01X826407Y2020207D03*
G01X826407Y1920207D03*
G01X826407Y1820207D03*
G01X826407Y1720207D03*
G01X826407Y1620207D03*
G54D30*
G01X826407Y1520207D03*
G54D27*
G01X2300000Y3795000D03*
G01X2400000Y3795000D03*
G01X2500000Y3795000D03*
G01X2600000Y3795000D03*
G01X2700000Y3795000D03*
G01X2800000Y3795000D03*
G01X2900000Y3795000D03*
G01X3000000Y3795000D03*
G01X3100000Y3795000D03*
G01X3200000Y3795000D03*
G01X3300000Y3795000D03*
G01X3400000Y3795000D03*
G01X3500000Y3795000D03*
G54D28*
G01X3600000Y3795000D03*
G54D27*
G01X2300000Y3895000D03*
G01X2400000Y3895000D03*
G01X2500000Y3895000D03*
G01X2600000Y3895000D03*
G01X2700000Y3895000D03*
G01X2800000Y3895000D03*
G01X2900000Y3895000D03*
G01X3000000Y3895000D03*
G01X3100000Y3895000D03*
G01X3200000Y3895000D03*
G01X3300000Y3895000D03*
G01X3400000Y3895000D03*
G01X3500000Y3895000D03*
G54D28*
G01X3600000Y3895000D03*
G54D31*
G01X2200000Y3695000D03*
G54D32*
G01X2100000Y3695000D03*
G01X2000000Y3695000D03*
G01X1900000Y3695000D03*
G01X1800000Y3695000D03*
G01X1700000Y3695000D03*
G01X1600000Y3695000D03*
G01X1500000Y3695000D03*
G01X1400000Y3695000D03*
G01X1300000Y3695000D03*
G01X1200000Y3695000D03*
G01X1100000Y3695000D03*
G01X1000000Y3695000D03*
G54D31*
G01X2200000Y3795000D03*
G54D32*
G01X2100000Y3795000D03*
G01X2000000Y3795000D03*
G01X1900000Y3795000D03*
G01X1800000Y3795000D03*
G01X1700000Y3795000D03*
G01X1600000Y3795000D03*
G01X1500000Y3795000D03*
G01X1400000Y3795000D03*
G01X1300000Y3795000D03*
G01X1200000Y3795000D03*
G01X1100000Y3795000D03*
G01X1000000Y3795000D03*
G54D31*
G01X2200000Y3895000D03*
G54D32*
G01X2100000Y3895000D03*
G01X2000000Y3895000D03*
G01X1900000Y3895000D03*
G01X1800000Y3895000D03*
G01X1700000Y3895000D03*
G01X1600000Y3895000D03*
G01X1500000Y3895000D03*
G01X1400000Y3895000D03*
G01X1300000Y3895000D03*
G01X1200000Y3895000D03*
G01X1100000Y3895000D03*
G01X1000000Y3895000D03*
G04 Pad End*

G04 Via Start*
G54D33*
G01X4200000Y1640000D03*
G01X2195000Y1680000D03*
G01X3050000Y1055000D03*
G01X3415000Y1055000D03*
G54D34*
G01X4055000Y2020000D03*
G54D33*
G01X3385000Y1015000D03*
G01X3270000Y1015000D03*
G01X4395000Y2355000D03*
G54D34*
G01X620000Y1852500D03*
G01X620000Y1827500D03*
G01X620000Y1802500D03*
G01X620000Y1777500D03*
G01X645000Y1852500D03*
G01X645000Y1827500D03*
G01X645000Y1802500D03*
G01X645000Y1777500D03*
G01X670000Y1852500D03*
G01X670000Y1827500D03*
G01X670000Y1802500D03*
G01X670000Y1777500D03*
G01X595000Y1852500D03*
G01X595000Y1827500D03*
G01X595000Y1802500D03*
G01X595000Y1777500D03*
G01X318326Y1486713D03*
G01X293326Y1486713D03*
G01X293326Y1461713D03*
G01X318326Y1461713D03*
G01X293326Y1436713D03*
G01X318326Y1436713D03*
G01X293326Y1411713D03*
G01X318326Y1411713D03*
G01X407500Y1310000D03*
G01X382500Y1310000D03*
G01X357500Y1310000D03*
G01X332500Y1310000D03*
G01X332500Y1285000D03*
G01X332500Y1260000D03*
G01X357500Y1260000D03*
G01X357500Y1285000D03*
G01X382500Y1260000D03*
G01X382500Y1285000D03*
G01X407500Y1260000D03*
G01X407500Y1285000D03*
G01X80000Y1197500D03*
G01X80000Y1222500D03*
G01X80000Y1247500D03*
G01X80000Y1272500D03*
G01X30000Y1272500D03*
G01X30000Y1247500D03*
G01X55000Y1247500D03*
G01X30000Y1222500D03*
G01X55000Y1222500D03*
G01X30000Y1197500D03*
G01X55000Y1197500D03*
G01X425000Y2142500D03*
G01X425000Y2167500D03*
G01X425000Y2192500D03*
G01X425000Y2217500D03*
G01X400000Y2217500D03*
G01X375000Y2217500D03*
G01X375000Y2192500D03*
G01X400000Y2192500D03*
G01X375000Y2167500D03*
G01X400000Y2167500D03*
G01X375000Y2142500D03*
G01X400000Y2142500D03*
G01X505000Y2142500D03*
G01X505000Y2167500D03*
G01X505000Y2192500D03*
G01X505000Y2217500D03*
G01X455000Y2217500D03*
G01X455000Y2192500D03*
G01X480000Y2192500D03*
G01X455000Y2167500D03*
G01X480000Y2167500D03*
G01X455000Y2142500D03*
G01X480000Y2142500D03*
G01X55340Y1615000D03*
G01X495000Y1485000D03*
G01X265000Y1150000D03*
G01X343326Y1411713D03*
G01X343326Y1436713D03*
G01X343326Y1461713D03*
G01X343326Y1486713D03*
G04 Via End*

G04 Track Start*
G54D35*
G01X3600000Y2390000D02*
G01X3780000Y2390000D01*
G01X4170000Y2000000D01*
G01X4170000Y1670000D01*
G01X4200000Y1640000D01*
G54D36*
G01X4685000Y2215000D02*
G01X4685000Y2115000D01*
G01X4685000Y2015000D01*
G01X4685000Y1915000D01*
G01X4685000Y1815000D01*
G01X4685000Y1715000D02*
G01X4685000Y1615000D01*
G01X4685000Y1515000D01*
G01X4685000Y1415000D01*
G01X4585000Y1315000D02*
G01X4685000Y1315000D01*
G54D37*
G01X3345000Y945000D02*
G01X3340000Y950000D01*
G54D38*
G01X4585000Y1315000D02*
G01X4500534Y1315000D01*
G01X4471648Y1343886D01*
G01X3500000Y265000D02*
G01X3500000Y349660D01*
G01X3484660Y365000D01*
G01X3500000Y165000D02*
G01X3500000Y60340D01*
G01X3499660Y60000D01*
G01X3100000Y265000D02*
G01X3100000Y325000D01*
G01X3130000Y355000D01*
G01X3415340Y355000D01*
G01X3425340Y365000D01*
G01X3810000Y1020000D02*
G01X3917071Y1127071D01*
G54D37*
G01X1795000Y1390000D02*
G01X1960000Y1390000D01*
G01X3340000Y950000D02*
G01X3340000Y2440000D01*
G01X3490000Y2590000D02*
G01X3600000Y2590000D01*
G54D36*
G01X924792Y2621407D02*
G01X924792Y2521407D01*
G01X924792Y2421407D01*
G01X924792Y2321407D01*
G01X924792Y2221407D01*
G01X924792Y2121407D01*
G01X924792Y2021407D01*
G01X924792Y1921407D01*
G01X924792Y1821407D01*
G01X924792Y1721407D01*
G01X826407Y2620207D02*
G01X826407Y2520207D01*
G01X826407Y2420207D01*
G01X826407Y2320207D01*
G01X826407Y2220207D01*
G01X826407Y2120207D01*
G01X826407Y2020207D01*
G01X826407Y1920207D01*
G01X826407Y1820207D01*
G01X826407Y1720207D01*
G54D38*
G01X3917071Y1127071D02*
G01X3917071Y1882071D01*
G01X4055000Y2020000D01*
G54D36*
G01X2400000Y3895000D02*
G01X2500000Y3895000D01*
G01X2600000Y3895000D01*
G01X2700000Y3895000D01*
G01X2800000Y3895000D01*
G01X2900000Y3895000D01*
G01X3000000Y3895000D01*
G01X3100000Y3895000D01*
G01X3200000Y3895000D01*
G01X3300000Y3895000D01*
G01X3400000Y3895000D01*
G01X3500000Y3895000D01*
G01X3600000Y3895000D01*
G01X1000000Y165000D02*
G01X1100000Y165000D01*
G01X1200000Y165000D01*
G01X1300000Y165000D01*
G01X1400000Y165000D01*
G01X1500000Y165000D01*
G01X1600000Y165000D01*
G01X1700000Y165000D01*
G01X1800000Y165000D01*
G01X1900000Y165000D01*
G01X2000000Y165000D01*
G01X2100000Y165000D01*
G01X2200000Y165000D01*
G01X2300000Y165000D01*
G01X2400000Y165000D01*
G01X2500000Y165000D01*
G01X2600000Y165000D01*
G01X2700000Y165000D01*
G01X2800000Y165000D01*
G01X2900000Y165000D01*
G01X3000000Y165000D01*
G01X3100000Y165000D01*
G01X3200000Y165000D01*
G01X3300000Y165000D01*
G01X3400000Y165000D01*
G01X3300000Y65000D02*
G01X3200000Y65000D01*
G01X3100000Y65000D01*
G01X3000000Y65000D01*
G01X2900000Y65000D01*
G01X2800000Y65000D01*
G01X2700000Y65000D01*
G01X2600000Y65000D01*
G01X2500000Y65000D01*
G01X2400000Y65000D01*
G01X2300000Y65000D01*
G01X2200000Y65000D01*
G01X2100000Y65000D01*
G01X2000000Y65000D01*
G01X1900000Y65000D01*
G01X1800000Y65000D01*
G01X1700000Y65000D01*
G01X1600000Y65000D01*
G01X1500000Y65000D01*
G01X1400000Y65000D01*
G01X1300000Y65000D01*
G01X1200000Y65000D01*
G01X1100000Y65000D01*
G01X1000000Y65000D01*
G54D38*
G01X3600000Y2490000D02*
G01X3487560Y2490000D01*
G01X3432440Y2490000D02*
G01X3390000Y2490000D01*
G54D37*
G01X3340000Y2440000D02*
G01X3390000Y2490000D01*
G54D36*
G01X2310000Y3795000D02*
G01X2210000Y3795000D01*
G01X2110000Y3795000D01*
G01X2010000Y3795000D01*
G01X1910000Y3795000D01*
G01X1810000Y3795000D01*
G01X1710000Y3795000D01*
G01X1610000Y3795000D01*
G01X1510000Y3795000D01*
G01X1410000Y3795000D01*
G01X1310000Y3795000D01*
G01X1210000Y3795000D01*
G01X1110000Y3795000D01*
G01X1000000Y3795000D01*
G01X2300000Y3895000D02*
G01X2400000Y3895000D01*
G01X1000000Y3895000D02*
G01X1100000Y3895000D01*
G01X1200000Y3895000D01*
G01X1300000Y3895000D01*
G01X1400000Y3895000D01*
G01X1500000Y3895000D01*
G01X1600000Y3895000D01*
G01X1700000Y3895000D01*
G01X1800000Y3895000D01*
G01X1900000Y3895000D01*
G01X2000000Y3895000D01*
G01X2100000Y3895000D01*
G01X2200000Y3895000D01*
G01X2300000Y3895000D01*
G01X3600000Y3795000D02*
G01X3500000Y3795000D01*
G01X3400000Y3795000D01*
G01X826407Y1720207D02*
G01X826407Y1620207D01*
G01X826407Y1520207D01*
G01X924792Y1721407D02*
G01X924792Y1621407D01*
G01X924792Y1521407D01*
G54D38*
G01X2195000Y1680000D02*
G01X2820000Y1055000D01*
G01X3050000Y1055000D01*
G01X3415000Y1055000D02*
G01X3480000Y1055000D01*
G01X3515000Y1020000D01*
G01X3810000Y1020000D01*
G01X1800000Y1495000D02*
G01X1795000Y1490000D01*
G54D36*
G01X4685000Y1815000D02*
G01X4685000Y1715000D01*
G54D38*
G01X4395000Y2234660D02*
G01X4395000Y2355000D01*
G54D39*
G01X215000Y125000D02*
G01X350000Y125000D01*
G01X446688Y221688D01*
G01X446688Y360004D01*
G01X445000Y495340D02*
G01X445000Y361692D01*
G01X446688Y360004D01*
G01X530000Y495340D02*
G01X530000Y363312D01*
G01X533308Y360004D01*
G54D16*
G01X215000Y225000D02*
G01X215000Y461937D01*
G01X210556Y466381D01*
G54D36*
G01X120396Y735951D02*
G01X120396Y860357D01*
G01X140039Y880000D01*
G54D33*
G01X300706Y735971D02*
G01X300706Y849253D01*
G01X269959Y880000D01*
G01X445000Y554660D02*
G01X445000Y591677D01*
G01X300706Y735971D01*
G01X530000Y554660D02*
G01X655340Y554660D01*
G01X725000Y485000D01*
G01X725000Y280000D01*
G01X840000Y165000D01*
G01X1000000Y165000D01*
G54D36*
G01X3400000Y3795000D02*
G01X3300000Y3795000D01*
G01X3200000Y3795000D01*
G54D35*
G01X4390000Y2155000D02*
G01X4390000Y1765000D01*
G01X4435000Y1720000D01*
G01X4580000Y1720000D01*
G01X4585000Y1715000D01*
G01X3400000Y2890000D02*
G01X3655000Y2890000D01*
G01X4390000Y2155000D01*
G54D36*
G01X3200000Y3795000D02*
G01X3100000Y3795000D01*
G01X3000000Y3795000D01*
G54D37*
G01X1900000Y2890000D02*
G01X1900000Y2825000D01*
G01X1950983Y2774017D01*
G01X1950983Y1399017D02*
G01X1960000Y1390000D01*
G01X2032560Y2755000D02*
G01X2032560Y2820000D01*
G54D38*
G01X2300000Y2890000D02*
G01X2300000Y2860000D01*
G01X3270000Y1890000D01*
G01X3270000Y1015000D01*
G01X1885000Y1495000D02*
G01X1800000Y1495000D01*
G54D35*
G01X4582136Y1417865D02*
G01X4554297Y1417865D01*
G01X4549297Y1412865D01*
G01X4359297Y1412865D01*
G01X3543064Y2664124D02*
G01X3541804Y2662865D01*
G01X2769297Y2662865D01*
G01X2704297Y2727865D01*
G01X2704297Y2885703D01*
G01X4585000Y1415000D02*
G01X4582136Y1417865D01*
G01X2704297Y2885703D02*
G01X2700000Y2890000D01*
G01X4359297Y1412865D02*
G01X4245000Y1527161D01*
G01X4326250Y1529287D02*
G01X4535959Y1529287D01*
G01X4550246Y1515000D01*
G01X3300000Y2890000D02*
G01X3300000Y2855246D01*
G01X4550246Y1515000D02*
G01X4585000Y1515000D01*
G01X4300000Y1555536D02*
G01X4326250Y1529287D01*
G01X3300000Y2855246D02*
G01X3435959Y2719287D01*
G54D37*
G01X2020136Y924999D02*
G01X2000000Y777560D01*
G01X2100000Y790000D02*
G01X2091704Y798296D01*
G01X2091703Y926703D01*
G01X2110000Y945000D01*
G01X1963768Y1393768D02*
G01X1997175Y1393768D01*
G01X2077175Y1313768D01*
G01X1960000Y1390000D02*
G01X1963768Y1393768D01*
G01X2077175Y1313768D02*
G01X2077175Y952825D01*
G01X2085000Y945000D01*
G01X2110000Y945000D01*
G01X3300000Y887440D02*
G01X3300000Y790000D01*
G01X3400000Y811378D02*
G01X3400000Y921378D01*
G01X3376378Y945000D01*
G01X3345000Y945000D01*
G01X895000Y3140966D02*
G01X895000Y3840000D01*
G01X950000Y3895000D01*
G01X1000000Y3895000D01*
G01X1027149Y3008817D02*
G01X895000Y3140966D01*
G01X1946183Y3008817D02*
G01X1027149Y3008817D01*
G01X2032560Y2820000D02*
G01X2000000Y2852560D01*
G01X2000000Y2955000D02*
G01X1946183Y3008817D01*
G01X2000000Y2852560D02*
G01X2000000Y2890000D01*
G01X2000000Y2955000D01*
G54D36*
G01X135502Y884537D02*
G01X135502Y940214D01*
G01X174872Y979585D01*
G01X140039Y880000D02*
G01X135502Y884537D01*
G01X3000000Y3795000D02*
G01X2900000Y3795000D01*
G01X2800000Y3795000D01*
G54D35*
G01X60340Y1495000D02*
G01X33622Y1495000D01*
G01X23622Y1485000D01*
G01X23622Y1278878D01*
G01X30000Y1272500D01*
G54D37*
G01X130614Y1272500D02*
G01X132650Y1274536D01*
G01X80000Y1272500D02*
G01X130614Y1272500D01*
G01X30000Y1197500D02*
G01X30000Y1222500D01*
G01X30000Y1247500D01*
G01X30000Y1272500D01*
G01X30000Y1197500D02*
G01X55000Y1197500D01*
G01X80000Y1197500D01*
G01X80000Y1222500D01*
G01X80000Y1247500D01*
G01X80000Y1272500D01*
G01X55000Y1247500D02*
G01X55000Y1222500D01*
G01X55000Y1197500D01*
G01X124660Y1335000D02*
G01X124660Y1287526D01*
G01X132650Y1279536D01*
G01X119660Y1340000D02*
G01X124660Y1335000D01*
G01X132650Y1279536D02*
G01X132650Y1274536D01*
G54D35*
G01X214392Y1434996D02*
G01X127556Y1434996D01*
G01X117560Y1425000D01*
G01X214392Y1484996D02*
G01X129664Y1484996D01*
G01X119660Y1495000D01*
G01X62440Y1425000D02*
G01X62440Y1342900D01*
G01X65340Y1340000D01*
G01X264997Y1274536D02*
G01X265337Y1274196D01*
G01X214392Y1384996D02*
G01X221352Y1378036D01*
G01X221352Y1274536D01*
G01X191970Y1274536D02*
G01X221352Y1274536D01*
G01X264997Y1274536D01*
G01X55340Y1565000D02*
G01X55340Y1615000D01*
G01X495000Y1485000D02*
G01X425616Y1485000D01*
G01X495000Y1485000D02*
G01X571760Y1485000D01*
G01X630000Y1426760D01*
G01X455340Y1315000D02*
G01X455340Y1355268D01*
G01X425612Y1384996D01*
G01X514660Y1315000D02*
G01X514660Y1400340D01*
G01X480000Y1435000D01*
G01X425616Y1435000D01*
G01X425612Y1534996D02*
G01X425612Y1621828D01*
G01X415000Y1632440D01*
G01X214392Y1534996D02*
G01X214392Y1654996D01*
G01X246956Y1687560D01*
G01X415000Y1687560D01*
G01X246956Y1687560D02*
G01X246956Y1808204D01*
G01X368147Y1811176D02*
G01X415000Y1764323D01*
G01X415000Y1687560D01*
G01X246956Y1808204D02*
G01X218044Y1808204D01*
G01X215000Y1805160D01*
G01X119660Y1495000D02*
G01X119660Y1560000D01*
G01X114660Y1565000D01*
G01X375000Y2217500D02*
G01X400000Y2217500D01*
G01X425000Y2217500D01*
G01X455000Y2217500D01*
G01X505000Y2217500D02*
G01X505000Y2192500D01*
G01X505000Y2167500D01*
G01X505000Y2142500D01*
G01X480000Y2142500D01*
G01X455000Y2142500D01*
G01X425000Y2142500D01*
G01X400000Y2142500D01*
G01X375000Y2142500D01*
G01X375000Y2192500D02*
G01X400000Y2192500D01*
G01X425000Y2192500D01*
G01X455000Y2192500D01*
G01X480000Y2192500D01*
G01X505000Y2192500D01*
G01X375000Y2167500D02*
G01X400000Y2167500D01*
G01X425000Y2167500D01*
G01X455000Y2167500D01*
G01X480000Y2167500D01*
G01X505000Y2167500D01*
G01X505000Y2217500D02*
G01X621822Y2217500D01*
G01X630337Y2208985D01*
G01X215000Y1964840D02*
G01X215000Y2070000D01*
G01X287500Y2142500D01*
G01X375000Y2142500D01*
G01X265000Y1150000D02*
G01X265000Y1214540D01*
G01X265337Y1214876D01*
G54D33*
G01X332500Y1310000D02*
G01X357500Y1310000D01*
G01X382500Y1310000D01*
G01X407500Y1310000D01*
G01X332500Y1260000D02*
G01X357500Y1260000D01*
G01X382500Y1260000D01*
G01X407500Y1260000D01*
G01X332500Y1285000D02*
G01X357500Y1285000D01*
G01X382500Y1285000D01*
G01X407500Y1285000D01*
G01X455340Y1315000D02*
G01X450340Y1310000D01*
G01X407500Y1310000D01*
G01X628676Y1811176D02*
G01X645000Y1827500D01*
G01X645000Y1917842D02*
G01X630337Y1932505D01*
G01X645000Y1827500D02*
G01X645000Y1852500D01*
G01X645000Y1917842D01*
G01X595000Y1738240D02*
G01X630000Y1703240D01*
G01X595000Y1852500D02*
G01X595000Y1827500D01*
G01X595000Y1811176D01*
G01X595000Y1802500D01*
G01X595000Y1777500D01*
G01X595000Y1738240D01*
G01X540787Y1811176D02*
G01X595000Y1811176D01*
G01X628676Y1811176D01*
G01X670000Y1852500D02*
G01X645000Y1852500D01*
G01X620000Y1852500D01*
G01X620000Y1777500D02*
G01X645000Y1777500D01*
G01X670000Y1777500D01*
G01X670000Y1802500D01*
G01X670000Y1827500D01*
G01X670000Y1852500D01*
G01X293326Y1486713D02*
G01X318326Y1486713D01*
G01X293326Y1486713D02*
G01X293326Y1461713D01*
G01X293326Y1436713D01*
G01X293326Y1411713D01*
G01X343326Y1411713D02*
G01X318326Y1411713D01*
G01X343326Y1436713D02*
G01X343326Y1411713D01*
G01X343326Y1461713D02*
G01X343326Y1436713D01*
G01X343326Y1486713D02*
G01X343326Y1461713D01*
G01X318326Y1486713D02*
G01X343326Y1486713D01*
G01X670000Y1827500D02*
G01X819114Y1827500D01*
G01X826407Y1820207D01*
G54D36*
G01X2800000Y3795000D02*
G01X2700000Y3795000D01*
G01X2600000Y3795000D01*
G01X2310000Y3795000D01*
G54D37*
G01X1950983Y2774017D02*
G01X1950983Y1399017D01*
G01X3345000Y945000D02*
G01X2110000Y945000D01*
G01X3390000Y2490000D02*
G01X3490000Y2590000D01*
G54D36*
G01X174872Y979585D02*
G01X379585Y979585D01*
G01X630000Y1230000D01*
G01X630000Y1426760D01*
G01X886760Y1426760D01*
G01X924792Y1464792D02*
G01X924792Y1521407D01*
G01X886760Y1426760D02*
G01X924792Y1464792D01*
G54D37*
G01X4685000Y1255000D02*
G01X4685175Y1254825D01*
G01X4685175Y1208289D01*
G01X4687440Y1206024D01*
G01X4685000Y1315000D02*
G01X4685000Y1255000D01*
G01X4687440Y1206024D02*
G01X4687440Y1160000D01*
G01X4692440Y1155000D01*
G01X4685000Y1415000D02*
G01X4715000Y1415000D01*
G01X4755000Y1375000D01*
G01X4755000Y1167440D01*
G01X4742560Y1155000D01*
G54D35*
G01X2800000Y2890000D02*
G01X2804016Y2890000D01*
G01X2804016Y2964016D01*
G01X2875000Y3035000D01*
G01X4034142Y3035000D01*
G01X4457500Y2611642D01*
G01X4457500Y1947500D01*
G01X4490000Y1915000D01*
G01X4585000Y1915000D01*
G01X4245000Y1527161D02*
G01X4245000Y2035000D01*
G01X3615876Y2664124D01*
G01X3543064Y2664124D01*
G01X3435959Y2719287D02*
G01X3655714Y2719287D01*
G01X4300000Y2075000D01*
G01X4300000Y1555536D01*
G54D38*
G01X3415000Y985000D02*
G01X3385000Y1015000D01*
G01X3465000Y985000D02*
G01X3415000Y985000D01*
G01X3690000Y760000D02*
G01X3465000Y985000D01*
G01X3690000Y80000D02*
G01X3690000Y760000D01*
G01X3675000Y65000D02*
G01X3690000Y80000D01*
G01X3564660Y65000D02*
G01X3675000Y65000D01*
G04 Track End*

M02*

