G04 Layer: TopLayer*
G04 EasyEDA Pro v2.2.47.7, 2026-05-12 14:28:52*
G04 Gerber Generator version 0.3*
G04 Scale: 100 percent, Rotated: No, Reflected: No*
G04 Dimensions in inches*
G04 Leading zeros omitted, absolute positions, 3 integers and 6 decimals*
G04 Generated by custom config*
G04 Object Configs: Pad,Via,Track,Text,Image,Dimension,BoardOutline,BoardCutout,CopperFilled,SolidRegion,FPCStiffener,Line,PlaneZone,ComponentProperty,ComponentSilkscreen,TearDrop*
G04 Layer Configs: 1,2,11,56*
G04 Copper Areas: 0*
%FSLAX36Y36*%
%MOIN*%
%ADD10R,0.066929X0.066929*%
%ADD11C,0.066929*%
%ADD12R,0.086909X0.102047*%
%ADD13R,0.177165X0.064961*%
%ADD14R,0.031496X0.035433*%
%ADD15R,0.035433X0.031496*%
%ADD16R,0.0889X0.07874*%
%ADD17R,0.07874X0.07874*%
%ADD18C,0.07874*%
%ADD19R,0.03937X0.062992*%
%ADD20R,0.070866X0.066929*%
%ADD21R,0.055118X0.083465*%
%ADD22R,0.03937X0.049213*%
%ADD23R,0.038528X0.094845*%
%ADD24R,0.218441X0.224845*%
%ADD25R,0.034016X0.031751*%
%ADD26R,0.031751X0.034016*%
%ADD27O,0.024803X0.073425*%
%ADD28C,0.070866*%
%ADD29R,0.070866X0.070866*%
%ADD30C,0.06*%
%ADD31R,0.06X0.06*%
%ADD32R,0.062992X0.062992*%
%ADD33C,0.062992*%
%ADD34C,0.03937*%
%ADD35C,0.024016*%
%ADD36C,0.019685*%
%ADD37C,0.023622*%
%ADD38C,0.059055*%
%ADD39C,0.015748*%
%ADD40C,0.031496*%
G75*


G04 Pad Start*
G54D10*
G01X3600000Y265000D03*
G54D11*
G01X3500000Y265000D03*
G01X3400000Y265000D03*
G54D10*
G01X3600000Y165000D03*
G54D11*
G01X3500000Y165000D03*
G01X3400000Y165000D03*
G54D12*
G01X-2226423Y2990745D03*
G01X-2502903Y2990745D03*
G54D13*
G01X-2439625Y3861176D03*
G01X-2793955Y3861176D03*
G54D12*
G01X-501760Y3505000D03*
G01X-778240Y3505000D03*
G54D14*
G01X-1230130Y3815193D03*
G01X-1285250Y3815193D03*
G01X-1367067Y3040745D03*
G01X-1422187Y3040745D03*
G01X-592560Y2385000D03*
G01X-537440Y2385000D03*
G01X2072440Y945000D03*
G01X2127560Y945000D03*
G01X1972560Y1495000D03*
G01X1917440Y1495000D03*
G54D15*
G01X3352029Y887633D03*
G01X3352029Y942753D03*
G54D14*
G01X2042560Y2740000D03*
G01X1987440Y2740000D03*
G01X3432440Y2490000D03*
G01X3487560Y2490000D03*
G54D17*
G01X215000Y125000D03*
G54D18*
G01X215000Y225000D03*
G54D19*
G01X140039Y880000D03*
G01X269959Y880000D03*
G54D20*
G01X-1644213Y3146176D03*
G01X-1816853Y3146176D03*
G54D11*
G01X4685000Y2215000D03*
G01X4585000Y2215000D03*
G01X4685000Y2115000D03*
G01X4585000Y2115000D03*
G01X4685000Y2015000D03*
G01X4585000Y2015000D03*
G01X4685000Y1915000D03*
G01X4585000Y1915000D03*
G01X4685000Y1815000D03*
G01X4585000Y1815000D03*
G01X4685000Y1715000D03*
G01X4585000Y1715000D03*
G01X4685000Y1615000D03*
G01X4585000Y1615000D03*
G01X4685000Y1515000D03*
G01X4585000Y1515000D03*
G01X4685000Y1415000D03*
G01X4585000Y1415000D03*
G01X4685000Y1315000D03*
G54D10*
G01X4585000Y1315000D03*
G54D21*
G01X-1900208Y3596176D03*
G01X-2059888Y3596176D03*
G54D22*
G01X533308Y360004D03*
G01X446688Y360004D03*
G54D23*
G01X300706Y735971D03*
G01X120396Y735951D03*
G54D24*
G01X210556Y466381D03*
G54D25*
G01X445000Y554660D03*
G01X445000Y495340D03*
G54D26*
G01X-1501904Y2890745D03*
G01X-1561224Y2890745D03*
G01X-947389Y2890745D03*
G01X-1006709Y2890745D03*
G01X-1385340Y2835000D03*
G01X-1444660Y2835000D03*
G01X-1178030Y3733546D03*
G01X-1237350Y3733546D03*
G54D25*
G01X530000Y554660D03*
G01X530000Y495340D03*
G54D26*
G01X-1213030Y2964536D03*
G01X-1272350Y2964536D03*
G01X-750003Y3204536D03*
G01X-809323Y3204536D03*
G54D25*
G01X4471648Y1343886D03*
G01X4471648Y1403206D03*
G01X4395000Y2175340D03*
G01X4395000Y2234660D03*
G54D26*
G01X3505340Y65000D03*
G01X3564660Y65000D03*
G01X3484660Y365000D03*
G01X3425340Y365000D03*
G54D27*
G01X-1082686Y3551788D03*
G01X-1132686Y3551788D03*
G01X-1182686Y3551788D03*
G01X-1232686Y3551788D03*
G01X-1082686Y3340568D03*
G01X-1132686Y3340568D03*
G01X-1182686Y3340568D03*
G01X-1232686Y3340568D03*
G54D28*
G01X1590000Y2585000D03*
G54D29*
G01X1590000Y2685000D03*
G01X1795000Y2590000D03*
G54D28*
G01X1795000Y2490000D03*
G01X1795000Y2390000D03*
G01X1795000Y2290000D03*
G01X1795000Y2190000D03*
G01X1795000Y2090000D03*
G01X1795000Y1990000D03*
G01X1795000Y1890000D03*
G01X1795000Y1790000D03*
G01X1795000Y1690000D03*
G01X1795000Y1590000D03*
G01X1795000Y1490000D03*
G01X1795000Y1390000D03*
G01X1795000Y1290000D03*
G01X1795000Y1190000D03*
G01X1795000Y1090000D03*
G54D29*
G01X1945000Y790000D03*
G54D28*
G01X2045000Y790000D03*
G01X2145000Y790000D03*
G01X2245000Y790000D03*
G01X2345000Y790000D03*
G01X2445000Y790000D03*
G01X2545000Y790000D03*
G01X2645000Y790000D03*
G01X2745000Y790000D03*
G01X2845000Y790000D03*
G01X2945000Y790000D03*
G01X3045000Y790000D03*
G01X3145000Y790000D03*
G01X3245000Y790000D03*
G01X3345000Y790000D03*
G01X3445000Y790000D03*
G54D29*
G01X3600000Y1090000D03*
G54D28*
G01X3600000Y1190000D03*
G01X3600000Y1290000D03*
G01X3600000Y1390000D03*
G01X3600000Y1490000D03*
G01X3600000Y1590000D03*
G01X3600000Y1690000D03*
G01X3600000Y1790000D03*
G01X3600000Y1890000D03*
G01X3600000Y1990000D03*
G01X3600000Y2090000D03*
G01X3600000Y2190000D03*
G01X3600000Y2290000D03*
G01X3600000Y2390000D03*
G01X3600000Y2490000D03*
G01X3600000Y2590000D03*
G54D29*
G01X3450000Y2890000D03*
G54D28*
G01X3350000Y2890000D03*
G01X3250000Y2890000D03*
G01X3150000Y2890000D03*
G01X3050000Y2890000D03*
G01X2950000Y2890000D03*
G01X2850000Y2890000D03*
G01X2750000Y2890000D03*
G01X2650000Y2890000D03*
G01X2550000Y2890000D03*
G01X2450000Y2890000D03*
G01X2350000Y2890000D03*
G01X2250000Y2890000D03*
G01X2150000Y2890000D03*
G01X2050000Y2890000D03*
G01X1950000Y2890000D03*
G54D30*
G01X2100000Y265000D03*
G01X2000000Y265000D03*
G01X1900000Y265000D03*
G01X1800000Y265000D03*
G01X1700000Y265000D03*
G01X1600000Y265000D03*
G01X1500000Y265000D03*
G01X1400000Y265000D03*
G01X1300000Y265000D03*
G01X1200000Y265000D03*
G01X1100000Y265000D03*
G54D31*
G01X1000000Y265000D03*
G54D30*
G01X3300000Y265000D03*
G01X3200000Y265000D03*
G01X3100000Y265000D03*
G01X3000000Y265000D03*
G01X2900000Y265000D03*
G01X2800000Y265000D03*
G01X2700000Y265000D03*
G01X2600000Y265000D03*
G01X2500000Y265000D03*
G01X2400000Y265000D03*
G01X2300000Y265000D03*
G54D31*
G01X2200000Y265000D03*
G54D28*
G01X2300000Y3695000D03*
G01X2400000Y3695000D03*
G01X2500000Y3695000D03*
G01X2600000Y3695000D03*
G01X2700000Y3695000D03*
G01X2800000Y3695000D03*
G01X2900000Y3695000D03*
G01X3000000Y3695000D03*
G01X3100000Y3695000D03*
G01X3200000Y3695000D03*
G01X3300000Y3695000D03*
G01X3400000Y3695000D03*
G01X3500000Y3695000D03*
G54D29*
G01X3600000Y3695000D03*
G54D30*
G01X2100000Y165000D03*
G01X2000000Y165000D03*
G01X1900000Y165000D03*
G01X1800000Y165000D03*
G01X1700000Y165000D03*
G01X1600000Y165000D03*
G01X1500000Y165000D03*
G01X1400000Y165000D03*
G01X1300000Y165000D03*
G01X1200000Y165000D03*
G01X1100000Y165000D03*
G54D31*
G01X1000000Y165000D03*
G54D30*
G01X3300000Y165000D03*
G01X3200000Y165000D03*
G01X3100000Y165000D03*
G01X3000000Y165000D03*
G01X2900000Y165000D03*
G01X2800000Y165000D03*
G01X2700000Y165000D03*
G01X2600000Y165000D03*
G01X2500000Y165000D03*
G01X2400000Y165000D03*
G01X2300000Y165000D03*
G54D31*
G01X2200000Y165000D03*
G54D30*
G01X2100000Y65000D03*
G01X2000000Y65000D03*
G01X1900000Y65000D03*
G01X1800000Y65000D03*
G01X1700000Y65000D03*
G01X1600000Y65000D03*
G01X1500000Y65000D03*
G01X1400000Y65000D03*
G01X1300000Y65000D03*
G01X1200000Y65000D03*
G01X1100000Y65000D03*
G54D31*
G01X1000000Y65000D03*
G54D30*
G01X3300000Y65000D03*
G01X3200000Y65000D03*
G01X3100000Y65000D03*
G01X3000000Y65000D03*
G01X2900000Y65000D03*
G01X2800000Y65000D03*
G01X2700000Y65000D03*
G01X2600000Y65000D03*
G01X2500000Y65000D03*
G01X2400000Y65000D03*
G01X2300000Y65000D03*
G54D31*
G01X2200000Y65000D03*
G54D30*
G01X874792Y2621407D03*
G01X874792Y2521407D03*
G01X874792Y2421407D03*
G01X874792Y2321407D03*
G01X874792Y2221407D03*
G01X874792Y2121407D03*
G01X874792Y2021407D03*
G01X874792Y1921407D03*
G01X874792Y1821407D03*
G01X874792Y1721407D03*
G01X874792Y1621407D03*
G54D31*
G01X874792Y1521407D03*
G54D30*
G01X776407Y2620207D03*
G01X776407Y2520207D03*
G01X776407Y2420207D03*
G01X776407Y2320207D03*
G01X776407Y2220207D03*
G01X776407Y2120207D03*
G01X776407Y2020207D03*
G01X776407Y1920207D03*
G01X776407Y1820207D03*
G01X776407Y1720207D03*
G01X776407Y1620207D03*
G54D31*
G01X776407Y1520207D03*
G54D28*
G01X2300000Y3795000D03*
G01X2400000Y3795000D03*
G01X2500000Y3795000D03*
G01X2600000Y3795000D03*
G01X2700000Y3795000D03*
G01X2800000Y3795000D03*
G01X2900000Y3795000D03*
G01X3000000Y3795000D03*
G01X3100000Y3795000D03*
G01X3200000Y3795000D03*
G01X3300000Y3795000D03*
G01X3400000Y3795000D03*
G01X3500000Y3795000D03*
G54D29*
G01X3600000Y3795000D03*
G54D28*
G01X2300000Y3895000D03*
G01X2400000Y3895000D03*
G01X2500000Y3895000D03*
G01X2600000Y3895000D03*
G01X2700000Y3895000D03*
G01X2800000Y3895000D03*
G01X2900000Y3895000D03*
G01X3000000Y3895000D03*
G01X3100000Y3895000D03*
G01X3200000Y3895000D03*
G01X3300000Y3895000D03*
G01X3400000Y3895000D03*
G01X3500000Y3895000D03*
G54D29*
G01X3600000Y3895000D03*
G54D32*
G01X2200000Y3695000D03*
G54D33*
G01X2100000Y3695000D03*
G01X2000000Y3695000D03*
G01X1900000Y3695000D03*
G01X1800000Y3695000D03*
G01X1700000Y3695000D03*
G01X1600000Y3695000D03*
G01X1500000Y3695000D03*
G01X1400000Y3695000D03*
G01X1300000Y3695000D03*
G01X1200000Y3695000D03*
G01X1100000Y3695000D03*
G01X1000000Y3695000D03*
G54D32*
G01X2200000Y3795000D03*
G54D33*
G01X2100000Y3795000D03*
G01X2000000Y3795000D03*
G01X1900000Y3795000D03*
G01X1800000Y3795000D03*
G01X1700000Y3795000D03*
G01X1600000Y3795000D03*
G01X1500000Y3795000D03*
G01X1400000Y3795000D03*
G01X1300000Y3795000D03*
G01X1200000Y3795000D03*
G01X1100000Y3795000D03*
G01X1000000Y3795000D03*
G54D32*
G01X2200000Y3895000D03*
G54D33*
G01X2100000Y3895000D03*
G01X2000000Y3895000D03*
G01X1900000Y3895000D03*
G01X1800000Y3895000D03*
G01X1700000Y3895000D03*
G01X1600000Y3895000D03*
G01X1500000Y3895000D03*
G01X1400000Y3895000D03*
G01X1300000Y3895000D03*
G01X1200000Y3895000D03*
G01X1100000Y3895000D03*
G01X1000000Y3895000D03*
G04 Pad End*

G04 Via Start*
G54D34*
G01X4200000Y1640000D03*
G01X2195000Y1680000D03*
G01X3050000Y1055000D03*
G01X3415000Y1055000D03*
G54D35*
G01X4055000Y2020000D03*
G54D34*
G01X3385000Y1015000D03*
G01X3270000Y1015000D03*
G01X4395000Y2355000D03*
G04 Via End*

G04 Track Start*
G54D36*
G01X4480000Y1515000D02*
G01X4585000Y1515000D01*
G01X4390000Y1765000D02*
G01X4435000Y1720000D01*
G01X4580000Y1720000D01*
G01X3450000Y2890000D02*
G01X3455000Y2895000D01*
G01X4580000Y1720000D02*
G01X4585000Y1715000D01*
G01X4582500Y1917500D02*
G01X4585000Y1915000D01*
G01X2850000Y2890000D02*
G01X2850000Y2984571D01*
G01X2857071Y2991642D01*
G01X4052500Y2991642D01*
G01X3600000Y2390000D02*
G01X3780000Y2390000D01*
G01X4170000Y2000000D01*
G01X4170000Y1670000D01*
G01X4200000Y1640000D01*
G54D37*
G01X2050000Y2890000D02*
G01X2050000Y2955000D01*
G01X1065000Y3075000D02*
G01X887500Y3252500D01*
G01X1930000Y3075000D02*
G01X1065000Y3075000D01*
G01X927500Y3895000D02*
G01X1000000Y3895000D01*
G01X2050000Y2955000D02*
G01X1930000Y3075000D01*
G01X1940000Y2780000D02*
G01X1940000Y2880000D01*
G01X1950000Y2890000D01*
G01X2065000Y1390000D02*
G01X2145000Y1310000D01*
G01X2045000Y790000D02*
G01X2045000Y927560D01*
G01X3445000Y790000D02*
G01X3445000Y895000D01*
G01X3405000Y935000D01*
G01X3355000Y935000D01*
G01X2145000Y945000D02*
G01X3345000Y945000D01*
G01X2145000Y1310000D02*
G01X2145000Y945000D01*
G01X2145000Y790000D02*
G01X2145000Y945000D01*
G01X2045000Y927560D02*
G01X2067440Y950000D01*
G01X2077440Y950000D01*
G54D38*
G01X4685000Y2215000D02*
G01X4685000Y2115000D01*
G01X4685000Y2015000D01*
G01X4685000Y1915000D01*
G01X4685000Y1815000D01*
G01X4685000Y1715000D02*
G01X4685000Y1615000D01*
G01X4685000Y1515000D01*
G01X4685000Y1415000D01*
G01X4585000Y1315000D02*
G01X4685000Y1315000D01*
G54D37*
G01X3355000Y935000D02*
G01X3345000Y945000D01*
G01X3340000Y950000D01*
G54D39*
G01X4585000Y1315000D02*
G01X4500534Y1315000D01*
G01X4471648Y1343886D01*
G01X3500000Y265000D02*
G01X3500000Y349660D01*
G01X3484660Y365000D01*
G01X3500000Y165000D02*
G01X3500000Y60340D01*
G01X3499660Y60000D01*
G01X3100000Y265000D02*
G01X3100000Y325000D01*
G01X3130000Y355000D01*
G01X3415340Y355000D01*
G01X3425340Y365000D01*
G01X3810000Y1020000D02*
G01X3917071Y1127071D01*
G54D37*
G01X1960000Y1390000D02*
G01X2065000Y1390000D01*
G01X1795000Y1390000D02*
G01X1960000Y1390000D01*
G01X1985000Y1415000D01*
G01X1985000Y2735000D02*
G01X1940000Y2780000D01*
G01X3340000Y950000D02*
G01X3340000Y2440000D01*
G01X3490000Y2590000D02*
G01X3600000Y2590000D01*
G54D36*
G01X3455000Y2895000D02*
G01X3650000Y2895000D01*
G01X4310000Y1685000D02*
G01X4480000Y1515000D01*
G54D37*
G01X3345000Y790000D02*
G01X3352029Y797029D01*
G01X3352029Y887633D01*
G54D38*
G01X874792Y2621407D02*
G01X874792Y2521407D01*
G01X874792Y2421407D01*
G01X874792Y2321407D01*
G01X874792Y2221407D01*
G01X874792Y2121407D01*
G01X874792Y2021407D01*
G01X874792Y1921407D01*
G01X874792Y1821407D01*
G01X874792Y1721407D01*
G01X776407Y2620207D02*
G01X776407Y2520207D01*
G01X776407Y2420207D01*
G01X776407Y2320207D01*
G01X776407Y2220207D01*
G01X776407Y2120207D01*
G01X776407Y2020207D01*
G01X776407Y1920207D01*
G01X776407Y1820207D01*
G01X776407Y1720207D01*
G54D39*
G01X3917071Y1127071D02*
G01X3917071Y1882071D01*
G01X4055000Y2020000D01*
G54D37*
G01X887500Y3855000D02*
G01X927500Y3895000D01*
G01X887500Y3252500D02*
G01X887500Y3855000D01*
G54D38*
G01X2400000Y3895000D02*
G01X2500000Y3895000D01*
G01X2600000Y3895000D01*
G01X2700000Y3895000D01*
G01X2800000Y3895000D01*
G01X2900000Y3895000D01*
G01X3000000Y3895000D01*
G01X3100000Y3895000D01*
G01X3200000Y3895000D01*
G01X3300000Y3895000D01*
G01X3400000Y3895000D01*
G01X3500000Y3895000D01*
G01X3600000Y3895000D01*
G01X1000000Y165000D02*
G01X1100000Y165000D01*
G01X1200000Y165000D01*
G01X1300000Y165000D01*
G01X1400000Y165000D01*
G01X1500000Y165000D01*
G01X1600000Y165000D01*
G01X1700000Y165000D01*
G01X1800000Y165000D01*
G01X1900000Y165000D01*
G01X2000000Y165000D01*
G01X2100000Y165000D01*
G01X2200000Y165000D01*
G01X2300000Y165000D01*
G01X2400000Y165000D01*
G01X2500000Y165000D01*
G01X2600000Y165000D01*
G01X2700000Y165000D01*
G01X2800000Y165000D01*
G01X2900000Y165000D01*
G01X3000000Y165000D01*
G01X3100000Y165000D01*
G01X3200000Y165000D01*
G01X3300000Y165000D01*
G01X3400000Y165000D01*
G01X3300000Y65000D02*
G01X3200000Y65000D01*
G01X3100000Y65000D01*
G01X3000000Y65000D01*
G01X2900000Y65000D01*
G01X2800000Y65000D01*
G01X2700000Y65000D01*
G01X2600000Y65000D01*
G01X2500000Y65000D01*
G01X2400000Y65000D01*
G01X2300000Y65000D01*
G01X2200000Y65000D01*
G01X2100000Y65000D01*
G01X2000000Y65000D01*
G01X1900000Y65000D01*
G01X1800000Y65000D01*
G01X1700000Y65000D01*
G01X1600000Y65000D01*
G01X1500000Y65000D01*
G01X1400000Y65000D01*
G01X1300000Y65000D01*
G01X1200000Y65000D01*
G01X1100000Y65000D01*
G01X1000000Y65000D01*
G54D39*
G01X2050000Y2890000D02*
G01X2050000Y2747440D01*
G01X2042560Y2740000D01*
G54D36*
G01X3350000Y2890000D02*
G01X3350000Y2790000D01*
G01X3435000Y2705000D01*
G54D39*
G01X3600000Y2490000D02*
G01X3487560Y2490000D01*
G01X3432440Y2490000D02*
G01X3390000Y2490000D01*
G54D37*
G01X3390000Y2490000D02*
G01X3490000Y2590000D01*
G01X3340000Y2440000D02*
G01X3390000Y2490000D01*
G54D36*
G01X3650000Y2895000D02*
G01X4390000Y2155000D01*
G01X4390000Y1765000D01*
G01X3435000Y2705000D02*
G01X3725000Y2705000D01*
G01X4310000Y2120000D01*
G01X4310000Y1685000D01*
G54D38*
G01X2310000Y3795000D02*
G01X2210000Y3795000D01*
G01X2110000Y3795000D01*
G01X2010000Y3795000D01*
G01X1910000Y3795000D01*
G01X1810000Y3795000D01*
G01X1710000Y3795000D01*
G01X1610000Y3795000D01*
G01X1510000Y3795000D01*
G01X1410000Y3795000D01*
G01X1310000Y3795000D01*
G01X1210000Y3795000D01*
G01X1110000Y3795000D01*
G01X1000000Y3795000D01*
G01X2410000Y3795000D02*
G01X2310000Y3795000D01*
G01X2510000Y3795000D02*
G01X2410000Y3795000D01*
G01X2610000Y3795000D02*
G01X2510000Y3795000D01*
G01X2710000Y3795000D02*
G01X2610000Y3795000D01*
G01X2810000Y3795000D02*
G01X2710000Y3795000D01*
G01X2910000Y3795000D02*
G01X2810000Y3795000D01*
G01X2300000Y3895000D02*
G01X2400000Y3895000D01*
G01X1000000Y3895000D02*
G01X1100000Y3895000D01*
G01X1200000Y3895000D01*
G01X1300000Y3895000D01*
G01X1400000Y3895000D01*
G01X1500000Y3895000D01*
G01X1600000Y3895000D01*
G01X1700000Y3895000D01*
G01X1800000Y3895000D01*
G01X1900000Y3895000D01*
G01X2000000Y3895000D01*
G01X2100000Y3895000D01*
G01X2200000Y3895000D01*
G01X2300000Y3895000D01*
G01X3600000Y3795000D02*
G01X3500000Y3795000D01*
G01X3400000Y3795000D01*
G01X776407Y1720207D02*
G01X776407Y1620207D01*
G01X776407Y1520207D01*
G01X874792Y1721407D02*
G01X874792Y1621407D01*
G01X874792Y1521407D01*
G54D39*
G01X2195000Y1680000D02*
G01X2820000Y1055000D01*
G01X3050000Y1055000D01*
G01X2350000Y2890000D02*
G01X3270000Y1970000D01*
G01X3270000Y1015000D01*
G01X3564660Y65000D02*
G01X3675000Y65000D01*
G01X3690000Y80000D01*
G54D36*
G01X4455000Y1415000D02*
G01X4585000Y1415000D01*
G01X4260000Y1610000D02*
G01X4455000Y1415000D01*
G01X4260000Y2075000D02*
G01X4260000Y1610000D01*
G01X3670000Y2665000D02*
G01X4260000Y2075000D01*
G01X2750000Y2890000D02*
G01X2750000Y2780000D01*
G01X2865000Y2665000D01*
G01X3670000Y2665000D01*
G54D39*
G01X3415000Y1055000D02*
G01X3480000Y1055000D01*
G01X3515000Y1020000D01*
G01X3810000Y1020000D01*
G01X3415000Y985000D02*
G01X3385000Y1015000D01*
G01X3690000Y80000D02*
G01X3690000Y760000D01*
G01X3465000Y985000D01*
G01X3415000Y985000D01*
G01X1917440Y1495000D02*
G01X1800000Y1495000D01*
G01X1795000Y1490000D01*
G54D38*
G01X4685000Y1815000D02*
G01X4685000Y1715000D01*
G54D36*
G01X4052500Y2991642D02*
G01X4502500Y2541642D01*
G01X4502500Y1937185D01*
G01X4522185Y1917500D01*
G01X4582500Y1917500D01*
G54D39*
G01X4395000Y2234660D02*
G01X4395000Y2355000D01*
G54D40*
G01X215000Y125000D02*
G01X350000Y125000D01*
G01X446688Y221688D01*
G01X446688Y360004D01*
G01X445000Y495340D02*
G01X445000Y361692D01*
G01X446688Y360004D01*
G01X530000Y495340D02*
G01X530000Y363312D01*
G01X533308Y360004D01*
G54D38*
G01X215000Y225000D02*
G01X215000Y461937D01*
G01X210556Y466381D01*
G54D34*
G01X120396Y735951D02*
G01X120396Y860357D01*
G01X140039Y880000D01*
G01X300706Y735971D02*
G01X300706Y849253D01*
G01X269959Y880000D01*
G01X445000Y554660D02*
G01X445000Y591677D01*
G01X300706Y735971D01*
G01X530000Y554660D02*
G01X655340Y554660D01*
G01X725000Y485000D01*
G01X725000Y280000D01*
G01X840000Y165000D01*
G01X1000000Y165000D01*
G54D38*
G01X3400000Y3795000D02*
G01X3300000Y3795000D01*
G01X3200000Y3795000D01*
G01X2910000Y3795000D01*
G54D37*
G01X1985000Y1415000D02*
G01X1985000Y2735000D01*
G54D34*
G01X140039Y880000D02*
G01X140039Y960630D01*
G01X179409Y1000000D01*
G01X675000Y1000000D01*
G01X874792Y1199792D01*
G01X874792Y1521407D01*
G04 Track End*

M02*

