G04 Layer: BottomLayer*
G04 EasyEDA Pro v2.2.47.7, 2026-05-12 14:28:52*
G04 Gerber Generator version 0.3*
G04 Scale: 100 percent, Rotated: No, Reflected: No*
G04 Dimensions in inches*
G04 Leading zeros omitted, absolute positions, 3 integers and 6 decimals*
G04 Generated by custom config*
G04 Object Configs: Pad,Via,Track,Text,Image,Dimension,BoardOutline,BoardCutout,CopperFilled,SolidRegion,FPCStiffener,Line,PlaneZone,ComponentProperty,ComponentSilkscreen,TearDrop*
G04 Layer Configs: 1,2,11,56*
G04 Copper Areas: 0*
%FSLAX36Y36*%
%MOIN*%
%ADD10R,0.066929X0.066929*%
%ADD11C,0.066929*%
%ADD12R,0.031496X0.035433*%
%ADD13R,0.07874X0.07874*%
%ADD14C,0.07874*%
%ADD15R,0.034016X0.031751*%
%ADD16R,0.031751X0.034016*%
%ADD17C,0.0750*%
%ADD18C,0.070866*%
%ADD19R,0.070866X0.070866*%
%ADD20R,0.051181X0.216535*%
%ADD21C,0.06*%
%ADD22R,0.06X0.06*%
%ADD23R,0.062992X0.062992*%
%ADD24C,0.062992*%
%ADD25C,0.03937*%
%ADD26C,0.024016*%
%ADD27C,0.015748*%
%ADD28C,0.023622*%
%ADD29C,0.01*%
%ADD30C,0.059055*%
G75*


G04 Pad Start*
G54D10*
G01X3600000Y265000D03*
G54D11*
G01X3500000Y265000D03*
G01X3400000Y265000D03*
G54D10*
G01X3600000Y165000D03*
G54D11*
G01X3500000Y165000D03*
G01X3400000Y165000D03*
G54D12*
G01X2352560Y2295000D03*
G01X2297440Y2295000D03*
G01X2356860Y1975346D03*
G01X2301740Y1975346D03*
G54D13*
G01X215000Y125000D03*
G54D14*
G01X215000Y225000D03*
G54D11*
G01X4685000Y2215000D03*
G01X4585000Y2215000D03*
G01X4685000Y2115000D03*
G01X4585000Y2115000D03*
G01X4685000Y2015000D03*
G01X4585000Y2015000D03*
G01X4685000Y1915000D03*
G01X4585000Y1915000D03*
G01X4685000Y1815000D03*
G01X4585000Y1815000D03*
G01X4685000Y1715000D03*
G01X4585000Y1715000D03*
G01X4685000Y1615000D03*
G01X4585000Y1615000D03*
G01X4685000Y1515000D03*
G01X4585000Y1515000D03*
G01X4685000Y1415000D03*
G01X4585000Y1415000D03*
G01X4685000Y1315000D03*
G54D10*
G01X4585000Y1315000D03*
G54D15*
G01X2300000Y2184660D03*
G01X2300000Y2125340D03*
G54D16*
G01X4430340Y1920000D03*
G01X4489660Y1920000D03*
G54D15*
G01X4455000Y1565340D03*
G01X4455000Y1624660D03*
G54D16*
G01X4395340Y1495000D03*
G01X4454660Y1495000D03*
G54D18*
G01X1590000Y2585000D03*
G54D19*
G01X1590000Y2685000D03*
G54D20*
G01X2105000Y1950750D03*
G01X2105000Y2309250D03*
G54D19*
G01X1795000Y2590000D03*
G54D18*
G01X1795000Y2490000D03*
G01X1795000Y2390000D03*
G01X1795000Y2290000D03*
G01X1795000Y2190000D03*
G01X1795000Y2090000D03*
G01X1795000Y1990000D03*
G01X1795000Y1890000D03*
G01X1795000Y1790000D03*
G01X1795000Y1690000D03*
G01X1795000Y1590000D03*
G01X1795000Y1490000D03*
G01X1795000Y1390000D03*
G01X1795000Y1290000D03*
G01X1795000Y1190000D03*
G01X1795000Y1090000D03*
G54D19*
G01X1945000Y790000D03*
G54D18*
G01X2045000Y790000D03*
G01X2145000Y790000D03*
G01X2245000Y790000D03*
G01X2345000Y790000D03*
G01X2445000Y790000D03*
G01X2545000Y790000D03*
G01X2645000Y790000D03*
G01X2745000Y790000D03*
G01X2845000Y790000D03*
G01X2945000Y790000D03*
G01X3045000Y790000D03*
G01X3145000Y790000D03*
G01X3245000Y790000D03*
G01X3345000Y790000D03*
G01X3445000Y790000D03*
G54D19*
G01X3600000Y1090000D03*
G54D18*
G01X3600000Y1190000D03*
G01X3600000Y1290000D03*
G01X3600000Y1390000D03*
G01X3600000Y1490000D03*
G01X3600000Y1590000D03*
G01X3600000Y1690000D03*
G01X3600000Y1790000D03*
G01X3600000Y1890000D03*
G01X3600000Y1990000D03*
G01X3600000Y2090000D03*
G01X3600000Y2190000D03*
G01X3600000Y2290000D03*
G01X3600000Y2390000D03*
G01X3600000Y2490000D03*
G01X3600000Y2590000D03*
G54D19*
G01X3450000Y2890000D03*
G54D18*
G01X3350000Y2890000D03*
G01X3250000Y2890000D03*
G01X3150000Y2890000D03*
G01X3050000Y2890000D03*
G01X2950000Y2890000D03*
G01X2850000Y2890000D03*
G01X2750000Y2890000D03*
G01X2650000Y2890000D03*
G01X2550000Y2890000D03*
G01X2450000Y2890000D03*
G01X2350000Y2890000D03*
G01X2250000Y2890000D03*
G01X2150000Y2890000D03*
G01X2050000Y2890000D03*
G01X1950000Y2890000D03*
G54D21*
G01X2100000Y265000D03*
G01X2000000Y265000D03*
G01X1900000Y265000D03*
G01X1800000Y265000D03*
G01X1700000Y265000D03*
G01X1600000Y265000D03*
G01X1500000Y265000D03*
G01X1400000Y265000D03*
G01X1300000Y265000D03*
G01X1200000Y265000D03*
G01X1100000Y265000D03*
G54D22*
G01X1000000Y265000D03*
G54D21*
G01X3300000Y265000D03*
G01X3200000Y265000D03*
G01X3100000Y265000D03*
G01X3000000Y265000D03*
G01X2900000Y265000D03*
G01X2800000Y265000D03*
G01X2700000Y265000D03*
G01X2600000Y265000D03*
G01X2500000Y265000D03*
G01X2400000Y265000D03*
G01X2300000Y265000D03*
G54D22*
G01X2200000Y265000D03*
G54D18*
G01X2300000Y3695000D03*
G01X2400000Y3695000D03*
G01X2500000Y3695000D03*
G01X2600000Y3695000D03*
G01X2700000Y3695000D03*
G01X2800000Y3695000D03*
G01X2900000Y3695000D03*
G01X3000000Y3695000D03*
G01X3100000Y3695000D03*
G01X3200000Y3695000D03*
G01X3300000Y3695000D03*
G01X3400000Y3695000D03*
G01X3500000Y3695000D03*
G54D19*
G01X3600000Y3695000D03*
G54D21*
G01X2100000Y165000D03*
G01X2000000Y165000D03*
G01X1900000Y165000D03*
G01X1800000Y165000D03*
G01X1700000Y165000D03*
G01X1600000Y165000D03*
G01X1500000Y165000D03*
G01X1400000Y165000D03*
G01X1300000Y165000D03*
G01X1200000Y165000D03*
G01X1100000Y165000D03*
G54D22*
G01X1000000Y165000D03*
G54D21*
G01X3300000Y165000D03*
G01X3200000Y165000D03*
G01X3100000Y165000D03*
G01X3000000Y165000D03*
G01X2900000Y165000D03*
G01X2800000Y165000D03*
G01X2700000Y165000D03*
G01X2600000Y165000D03*
G01X2500000Y165000D03*
G01X2400000Y165000D03*
G01X2300000Y165000D03*
G54D22*
G01X2200000Y165000D03*
G54D21*
G01X2100000Y65000D03*
G01X2000000Y65000D03*
G01X1900000Y65000D03*
G01X1800000Y65000D03*
G01X1700000Y65000D03*
G01X1600000Y65000D03*
G01X1500000Y65000D03*
G01X1400000Y65000D03*
G01X1300000Y65000D03*
G01X1200000Y65000D03*
G01X1100000Y65000D03*
G54D22*
G01X1000000Y65000D03*
G54D21*
G01X3300000Y65000D03*
G01X3200000Y65000D03*
G01X3100000Y65000D03*
G01X3000000Y65000D03*
G01X2900000Y65000D03*
G01X2800000Y65000D03*
G01X2700000Y65000D03*
G01X2600000Y65000D03*
G01X2500000Y65000D03*
G01X2400000Y65000D03*
G01X2300000Y65000D03*
G54D22*
G01X2200000Y65000D03*
G54D21*
G01X874792Y2621407D03*
G01X874792Y2521407D03*
G01X874792Y2421407D03*
G01X874792Y2321407D03*
G01X874792Y2221407D03*
G01X874792Y2121407D03*
G01X874792Y2021407D03*
G01X874792Y1921407D03*
G01X874792Y1821407D03*
G01X874792Y1721407D03*
G01X874792Y1621407D03*
G54D22*
G01X874792Y1521407D03*
G54D21*
G01X776407Y2620207D03*
G01X776407Y2520207D03*
G01X776407Y2420207D03*
G01X776407Y2320207D03*
G01X776407Y2220207D03*
G01X776407Y2120207D03*
G01X776407Y2020207D03*
G01X776407Y1920207D03*
G01X776407Y1820207D03*
G01X776407Y1720207D03*
G01X776407Y1620207D03*
G54D22*
G01X776407Y1520207D03*
G54D18*
G01X2300000Y3795000D03*
G01X2400000Y3795000D03*
G01X2500000Y3795000D03*
G01X2600000Y3795000D03*
G01X2700000Y3795000D03*
G01X2800000Y3795000D03*
G01X2900000Y3795000D03*
G01X3000000Y3795000D03*
G01X3100000Y3795000D03*
G01X3200000Y3795000D03*
G01X3300000Y3795000D03*
G01X3400000Y3795000D03*
G01X3500000Y3795000D03*
G54D19*
G01X3600000Y3795000D03*
G54D18*
G01X2300000Y3895000D03*
G01X2400000Y3895000D03*
G01X2500000Y3895000D03*
G01X2600000Y3895000D03*
G01X2700000Y3895000D03*
G01X2800000Y3895000D03*
G01X2900000Y3895000D03*
G01X3000000Y3895000D03*
G01X3100000Y3895000D03*
G01X3200000Y3895000D03*
G01X3300000Y3895000D03*
G01X3400000Y3895000D03*
G01X3500000Y3895000D03*
G54D19*
G01X3600000Y3895000D03*
G54D23*
G01X2200000Y3695000D03*
G54D24*
G01X2100000Y3695000D03*
G01X2000000Y3695000D03*
G01X1900000Y3695000D03*
G01X1800000Y3695000D03*
G01X1700000Y3695000D03*
G01X1600000Y3695000D03*
G01X1500000Y3695000D03*
G01X1400000Y3695000D03*
G01X1300000Y3695000D03*
G01X1200000Y3695000D03*
G01X1100000Y3695000D03*
G01X1000000Y3695000D03*
G54D23*
G01X2200000Y3795000D03*
G54D24*
G01X2100000Y3795000D03*
G01X2000000Y3795000D03*
G01X1900000Y3795000D03*
G01X1800000Y3795000D03*
G01X1700000Y3795000D03*
G01X1600000Y3795000D03*
G01X1500000Y3795000D03*
G01X1400000Y3795000D03*
G01X1300000Y3795000D03*
G01X1200000Y3795000D03*
G01X1100000Y3795000D03*
G01X1000000Y3795000D03*
G54D23*
G01X2200000Y3895000D03*
G54D24*
G01X2100000Y3895000D03*
G01X2000000Y3895000D03*
G01X1900000Y3895000D03*
G01X1800000Y3895000D03*
G01X1700000Y3895000D03*
G01X1600000Y3895000D03*
G01X1500000Y3895000D03*
G01X1400000Y3895000D03*
G01X1300000Y3895000D03*
G01X1200000Y3895000D03*
G01X1100000Y3895000D03*
G01X1000000Y3895000D03*
G04 Pad End*

G04 Via Start*
G54D25*
G01X4200000Y1640000D03*
G01X2195000Y1680000D03*
G01X3050000Y1055000D03*
G01X3415000Y1055000D03*
G54D26*
G01X4055000Y2020000D03*
G54D25*
G01X3385000Y1015000D03*
G01X3270000Y1015000D03*
G01X4395000Y2355000D03*
G04 Via End*

G04 Track Start*
G54D27*
G01X3245000Y790000D02*
G01X3245000Y590000D01*
G01X3300000Y535000D01*
G01X3300000Y240000D01*
G01X3145000Y790000D02*
G01X3145000Y565000D01*
G01X3200000Y510000D01*
G01X3200000Y240000D01*
G01X3045000Y790000D02*
G01X3045000Y570000D01*
G01X2945000Y790000D02*
G01X2945000Y580000D01*
G01X3005000Y520000D01*
G01X3005000Y270000D02*
G01X3000000Y265000D01*
G01X2845000Y790000D02*
G01X2845000Y530000D01*
G01X2900000Y475000D01*
G01X2900000Y240000D01*
G01X2545000Y790000D02*
G01X2545000Y555000D01*
G01X2600000Y500000D01*
G01X2600000Y240000D01*
G01X2645000Y790000D02*
G01X2645000Y560000D01*
G01X2700000Y505000D01*
G01X2700000Y240000D01*
G01X2745000Y790000D02*
G01X2745000Y560000D01*
G01X2800000Y505000D01*
G01X2800000Y240000D01*
G01X2445000Y790000D02*
G01X2445000Y580000D01*
G01X2500000Y525000D01*
G01X2500000Y240000D01*
G01X2345000Y790000D02*
G01X2345000Y600000D01*
G01X2400000Y545000D01*
G01X2400000Y240000D01*
G01X2245000Y790000D02*
G01X2245000Y615000D01*
G01X2300000Y560000D01*
G01X2300000Y240000D01*
G01X1945000Y790000D02*
G01X2200000Y535000D01*
G01X2200000Y240000D01*
G01X1795000Y1090000D02*
G01X1795000Y805000D01*
G01X2100000Y500000D01*
G01X2100000Y240000D01*
G01X1900000Y520000D02*
G01X1900000Y240000D01*
G01X1795000Y1290000D02*
G01X1715000Y1290000D01*
G01X1805000Y270000D02*
G01X1800000Y265000D01*
G01X1795000Y1190000D02*
G01X1740000Y1190000D01*
G01X1730000Y1180000D01*
G01X1715000Y1290000D02*
G01X1680000Y1255000D01*
G01X1680000Y740000D01*
G01X1900000Y520000D01*
G01X1730000Y1180000D02*
G01X1730000Y795000D01*
G01X2000000Y525000D01*
G01X2000000Y240000D01*
G01X1700000Y520000D02*
G01X1700000Y240000D01*
G01X1600000Y520000D02*
G01X1600000Y240000D01*
G01X1795000Y1690000D02*
G01X1675000Y1690000D01*
G01X1795000Y1790000D02*
G01X1690000Y1790000D01*
G01X1690000Y1590000D02*
G01X1795000Y1590000D01*
G01X1635000Y1535000D02*
G01X1690000Y1590000D01*
G01X1635000Y695000D02*
G01X1635000Y1535000D01*
G01X1805000Y525000D02*
G01X1635000Y695000D01*
G01X1675000Y1690000D02*
G01X1585000Y1600000D01*
G01X1585000Y635000D01*
G01X1700000Y520000D01*
G01X1690000Y1790000D02*
G01X1535000Y1635000D01*
G01X1535000Y585000D01*
G01X1600000Y520000D01*
G01X1795000Y1890000D02*
G01X1620000Y1890000D01*
G01X1480000Y1750000D01*
G01X1480000Y540000D01*
G01X1500000Y520000D01*
G01X1500000Y240000D01*
G54D28*
G01X1795000Y2090000D02*
G01X1865000Y2090000D01*
G01X1995000Y1960000D01*
G01X2095750Y1960000D01*
G01X2105000Y1950750D01*
G01X1795000Y2190000D02*
G01X1890000Y2190000D01*
G01X2009250Y2309250D02*
G01X2105000Y2309250D01*
G01X1890000Y2190000D02*
G01X2009250Y2309250D01*
G01X2105000Y2309250D02*
G01X2283190Y2309250D01*
G01X2297440Y2295000D01*
G01X2297440Y2187220D01*
G01X2300000Y2184660D01*
G01X2301740Y1975346D02*
G01X2129596Y1975346D01*
G01X2105000Y1950750D01*
G01X2301740Y1975346D02*
G01X2301740Y2123600D01*
G01X2300000Y2125340D01*
G54D29*
G01X2356860Y2290700D02*
G01X2352560Y2295000D01*
G54D28*
G01X2356860Y1975346D02*
G01X2356860Y2290700D01*
G01X2130000Y1490000D02*
G01X2356860Y1716860D01*
G01X2356860Y1975346D01*
G01X2050000Y2890000D02*
G01X2050000Y2845000D01*
G01X2352560Y2542440D01*
G01X2352560Y2295000D01*
G54D27*
G01X3045000Y570000D02*
G01X3100000Y515000D01*
G01X3100000Y240000D01*
G01X1795000Y1990000D02*
G01X1570000Y1990000D01*
G01X1400000Y1820000D02*
G01X1400000Y240000D01*
G01X1570000Y1990000D02*
G01X1400000Y1820000D01*
G01X1310000Y275000D02*
G01X1300000Y265000D01*
G01X1000000Y265000D02*
G01X992929Y272071D01*
G01X1720000Y2290000D02*
G01X1795000Y2290000D01*
G01X1310000Y1880000D02*
G01X1720000Y2290000D01*
G01X1795000Y2390000D02*
G01X1710000Y2390000D01*
G01X1200000Y1880000D01*
G01X1200000Y240000D01*
G01X1795000Y2490000D02*
G01X1700000Y2490000D01*
G01X1100000Y1890000D01*
G01X1100000Y240000D01*
G01X992929Y1982929D02*
G01X1600000Y2590000D01*
G01X1795000Y2590000D01*
G01X1310000Y275000D02*
G01X1310000Y250000D01*
G01X992929Y272071D02*
G01X992929Y247071D01*
G01X3005000Y270000D02*
G01X3005000Y245000D01*
G01X1805000Y270000D02*
G01X1805000Y245000D01*
G01X1310000Y275000D02*
G01X1310000Y1880000D01*
G01X992929Y272071D02*
G01X992929Y1982929D01*
G01X3005000Y520000D02*
G01X3005000Y270000D01*
G01X1805000Y270000D02*
G01X1805000Y525000D01*
G54D28*
G01X3445000Y790000D02*
G01X3445000Y510000D01*
G01X3400000Y465000D01*
G01X3400000Y265000D01*
G01X3400000Y165000D01*
G54D30*
G01X3580000Y65000D02*
G01X3595000Y80000D01*
G01X3595000Y260000D02*
G01X3600000Y265000D01*
G01X1200000Y65000D02*
G01X1300000Y65000D01*
G01X1400000Y65000D01*
G01X1500000Y65000D01*
G01X1600000Y65000D01*
G01X1700000Y65000D01*
G01X1800000Y65000D01*
G01X1900000Y65000D01*
G01X2000000Y65000D01*
G01X2100000Y65000D01*
G01X2200000Y65000D01*
G01X2300000Y65000D01*
G01X2400000Y65000D01*
G01X2500000Y65000D01*
G01X2600000Y65000D01*
G01X2700000Y65000D01*
G01X2800000Y65000D01*
G01X2900000Y65000D01*
G01X3000000Y65000D01*
G01X3100000Y65000D01*
G01X3200000Y65000D01*
G01X3300000Y65000D01*
G01X3580000Y65000D01*
G01X1000000Y165000D02*
G01X1100000Y165000D01*
G01X1200000Y165000D01*
G01X1300000Y165000D01*
G01X1400000Y165000D01*
G01X1500000Y165000D01*
G01X1600000Y165000D01*
G01X1700000Y165000D01*
G01X1800000Y165000D01*
G01X1900000Y165000D01*
G01X2000000Y165000D01*
G01X2100000Y165000D01*
G01X2200000Y165000D01*
G01X2300000Y165000D01*
G01X2400000Y165000D01*
G01X2500000Y165000D01*
G01X2600000Y165000D01*
G01X2700000Y165000D01*
G01X2800000Y165000D01*
G01X2900000Y165000D01*
G01X3000000Y165000D01*
G01X3100000Y165000D01*
G01X3200000Y165000D01*
G01X3300000Y165000D01*
G54D27*
G01X3705000Y1190000D02*
G01X3600000Y1190000D01*
G01X3805000Y1095000D02*
G01X3605000Y1095000D01*
G01X3600000Y1090000D01*
G01X3450000Y2890000D02*
G01X3450000Y3055984D01*
G01X3350000Y2890000D02*
G01X3350000Y3075000D01*
G01X3250000Y2890000D02*
G01X3250000Y3037953D01*
G01X4200000Y1640000D02*
G01X4440000Y1640000D01*
G01X4465000Y1615000D02*
G01X4585000Y1615000D01*
G01X4440000Y1640000D02*
G01X4465000Y1615000D01*
G54D28*
G01X1590000Y2685000D02*
G01X1850000Y2685000D01*
G01X1950000Y2785000D01*
G01X1950000Y2890000D01*
G01X1000000Y3795000D02*
G01X910000Y3795000D01*
G01X895000Y3240000D02*
G01X1450000Y2685000D01*
G01X1590000Y2685000D01*
G01X1795000Y1490000D02*
G01X1980000Y1490000D01*
G01X2130000Y1490000D01*
G01X1980000Y1490000D02*
G01X2045000Y1425000D01*
G01X2045000Y945198D02*
G01X3289802Y945198D01*
G01X3340000Y895000D01*
G01X3340000Y795000D01*
G01X3345000Y790000D01*
G01X2045000Y1425000D02*
G01X2045000Y945198D01*
G01X2045000Y790000D01*
G01X3525000Y2490000D02*
G01X3600000Y2490000D01*
G01X3340000Y895000D02*
G01X3475000Y1030000D01*
G01X3475000Y2440000D01*
G01X3525000Y2490000D01*
G54D27*
G01X4454660Y1495000D02*
G01X4565000Y1495000D01*
G01X4585000Y1515000D01*
G01X4395340Y1495000D02*
G01X4395340Y1505680D01*
G01X4455000Y1565340D01*
G01X4585000Y1915000D02*
G01X4494660Y1915000D01*
G01X4489660Y1920000D01*
G01X4430340Y1920000D02*
G01X4235000Y1920000D01*
G01X4150000Y1620000D02*
G01X4205000Y1565000D01*
G01X4325340Y1565000D01*
G01X4395340Y1495000D01*
G01X4235000Y1920000D02*
G01X4150000Y1835000D01*
G01X4150000Y1620000D01*
G01X1795000Y1990000D02*
G01X1885000Y1990000D01*
G01X2195000Y1680000D01*
G54D30*
G01X3660000Y205000D02*
G01X3600000Y265000D01*
G01X4685000Y1415000D02*
G01X4735945Y1415000D01*
G01X4795000Y1355945D01*
G01X776407Y2620207D02*
G01X776407Y2520207D01*
G01X776407Y2420207D01*
G01X776407Y2320207D01*
G01X776407Y2220207D01*
G01X776407Y2120207D01*
G01X776407Y2020207D01*
G01X776407Y1920207D01*
G01X776407Y1820207D01*
G01X776407Y1720207D01*
G01X776407Y1620207D01*
G01X776407Y1520207D01*
G01X874792Y2621407D02*
G01X874792Y2521407D01*
G01X874792Y2421407D01*
G01X874792Y2321407D01*
G01X874792Y2221407D01*
G01X874792Y2121407D01*
G01X874792Y2021407D01*
G01X874792Y1921407D01*
G01X874792Y1821407D01*
G01X874792Y1721407D01*
G01X874792Y1621407D01*
G01X874792Y1521407D01*
G01X3500000Y3895000D02*
G01X3600000Y3895000D01*
G01X3400000Y3895000D02*
G01X3500000Y3895000D01*
G01X3300000Y3895000D02*
G01X3400000Y3895000D01*
G01X3200000Y3895000D02*
G01X3300000Y3895000D01*
G01X3100000Y3895000D02*
G01X3200000Y3895000D01*
G01X3000000Y3895000D02*
G01X3100000Y3895000D01*
G01X2900000Y3895000D02*
G01X3000000Y3895000D01*
G01X2800000Y3895000D02*
G01X2900000Y3895000D01*
G01X2700000Y3895000D02*
G01X2800000Y3895000D01*
G01X2600000Y3895000D02*
G01X2700000Y3895000D01*
G01X2500000Y3895000D02*
G01X2600000Y3895000D01*
G01X2400000Y3895000D02*
G01X2500000Y3895000D01*
G01X4680000Y2220000D02*
G01X4685000Y2215000D01*
G01X3445000Y790000D02*
G01X4143517Y790000D01*
G01X4585000Y1231484D01*
G01X4585000Y1315000D01*
G01X4795000Y1355945D02*
G01X4795000Y1210000D01*
G01X3790000Y205000D01*
G01X3660000Y205000D01*
G54D27*
G01X3600000Y2390000D02*
G01X3649252Y2390000D01*
G01X3665000Y2405748D01*
G01X3610000Y1790000D02*
G01X3617071Y1782929D01*
G01X3762023Y1782929D01*
G01X3600000Y1790000D02*
G01X3610000Y1790000D01*
G01X3669252Y2290000D02*
G01X3600000Y2290000D01*
G01X3600000Y1290000D02*
G01X3607071Y1282929D01*
G01X3682929Y1282929D01*
G01X4055000Y2020000D02*
G01X4580000Y2020000D01*
G01X4585000Y2015000D01*
G01X1341813Y2960236D02*
G01X1000000Y3302050D01*
G01X2117409Y3695000D02*
G01X2100000Y3695000D01*
G01X2117409Y3673903D02*
G01X2117409Y3695000D01*
G01X3600000Y3695000D02*
G01X3605000Y3695000D01*
G01X3500000Y3695000D02*
G01X3500000Y3690000D01*
G01X3300000Y3695000D02*
G01X3300000Y3690000D01*
G01X3100000Y3695000D02*
G01X3105000Y3695000D01*
G01X3744821Y1600000D02*
G01X3610000Y1600000D01*
G01X3600000Y1590000D01*
G01X3000000Y3675236D02*
G01X3014764Y3675236D01*
G01X2500000Y3695000D02*
G01X2500000Y3675000D01*
G01X3105000Y3695000D02*
G01X3230000Y3570000D01*
G01X3014764Y3675236D02*
G01X3150000Y3540000D01*
G01X3085000Y3510000D02*
G01X2900000Y3695000D01*
G01X2800000Y3695000D02*
G01X3015000Y3480000D01*
G01X2500000Y3675000D02*
G01X2775000Y3400000D01*
G01X1700000Y3215000D02*
G01X1700000Y3695000D01*
G01X1000000Y3302050D02*
G01X1000000Y3695000D01*
G01X1100000Y3325000D02*
G01X1100000Y3695000D01*
G01X1200000Y3695000D02*
G01X1200000Y3290000D01*
G01X1300000Y3270000D02*
G01X1300000Y3695000D01*
G01X1405000Y3285000D02*
G01X1405000Y3690000D01*
G01X1400000Y3695000D01*
G01X1500000Y3240000D02*
G01X1500000Y3695000D01*
G01X1600000Y3200000D02*
G01X1600000Y3695000D01*
G01X2200000Y3625000D02*
G01X2200000Y3695000D01*
G01X2100000Y3595000D02*
G01X2100000Y3695000D01*
G01X3450000Y3055984D02*
G01X3190984Y3315000D01*
G01X2510000Y3315000D01*
G01X2200000Y3625000D01*
G01X3350000Y3075000D02*
G01X3135000Y3290000D01*
G01X2405000Y3290000D01*
G01X2100000Y3595000D01*
G01X3250000Y3037953D02*
G01X3027953Y3260000D01*
G01X2280000Y3260000D01*
G01X2000000Y3540000D01*
G01X2000000Y3695000D01*
G01X1915748Y3230000D02*
G01X1900000Y3245748D01*
G01X1900000Y3695000D01*
G01X3150000Y2890000D02*
G01X3150000Y3045000D01*
G01X2965000Y3230000D01*
G01X1915748Y3230000D01*
G01X1815748Y3200000D02*
G01X1800000Y3215748D01*
G01X1800000Y3695000D01*
G01X3050000Y2890000D02*
G01X3050000Y3070000D01*
G01X2920000Y3200000D01*
G01X1815748Y3200000D01*
G01X1750000Y3165000D02*
G01X1700000Y3215000D01*
G01X2950000Y2890000D02*
G01X2950000Y3075000D01*
G01X2860000Y3165000D01*
G01X1750000Y3165000D01*
G01X1665000Y3135000D02*
G01X1600000Y3200000D01*
G01X2850000Y2890000D02*
G01X2850000Y3025000D01*
G01X2740000Y3135000D01*
G01X1665000Y3135000D01*
G01X1635000Y3105000D02*
G01X1500000Y3240000D01*
G01X2750000Y2890000D02*
G01X2750000Y3030000D01*
G01X2675000Y3105000D01*
G01X1635000Y3105000D01*
G01X1615000Y3075000D02*
G01X1405000Y3285000D01*
G01X2650000Y2890000D02*
G01X2650000Y3035000D01*
G01X2610000Y3075000D01*
G01X1615000Y3075000D01*
G01X1530000Y3040000D02*
G01X1300000Y3270000D01*
G01X2550000Y2890000D02*
G01X2550000Y2995000D01*
G01X2505000Y3040000D01*
G01X1530000Y3040000D01*
G01X1200000Y3290000D02*
G01X1480000Y3010000D01*
G01X2395000Y3010000D01*
G01X2450000Y2955000D01*
G01X2450000Y2890000D01*
G01X2250000Y2890000D02*
G01X2250000Y2950000D01*
G01X2150000Y2890000D02*
G01X2150000Y2920000D01*
G01X2109764Y2960236D01*
G01X1341813Y2960236D01*
G01X2250000Y2950000D02*
G01X2215000Y2985000D01*
G01X1440000Y2985000D01*
G01X1100000Y3325000D01*
G01X3200000Y3695000D02*
G01X3205000Y3695000D01*
G01X3015000Y3480000D02*
G01X3265000Y3480000D01*
G01X3265000Y3510000D02*
G01X3085000Y3510000D01*
G01X3150000Y3540000D02*
G01X3270000Y3540000D01*
G01X3230000Y3570000D02*
G01X3275000Y3570000D01*
G01X3722346Y2947654D02*
G01X3722346Y2952654D01*
G01X3245000Y3430000D01*
G01X2775000Y3400000D02*
G01X3240000Y3400000D01*
G01X3665000Y2405748D02*
G01X3665000Y2900000D01*
G01X3220000Y3345000D01*
G01X3240000Y3400000D02*
G01X3712363Y2927637D01*
G01X3230000Y3370000D02*
G01X3690000Y2910000D01*
G01X3690000Y2310748D01*
G01X3669252Y2290000D01*
G01X3762023Y1782929D02*
G01X3815473Y1836378D01*
G01X3815473Y2959527D01*
G01X3265000Y3510000D01*
G01X2700000Y3695000D02*
G01X2700000Y3692820D01*
G01X2937820Y3455000D01*
G01X3255000Y3455000D01*
G01X3742110Y2967890D01*
G01X3742110Y2955840D01*
G01X3738094Y2931906D02*
G01X3722346Y2947654D01*
G01X3742110Y2955840D02*
G01X3765000Y2932950D01*
G01X3265000Y3480000D02*
G01X3790000Y2955000D01*
G01X3790000Y1969922D01*
G01X3275000Y3570000D02*
G01X3865236Y2979764D01*
G01X3865236Y1720415D01*
G01X3744821Y1600000D01*
G01X3270000Y3540000D02*
G01X3840000Y2970000D01*
G01X3205000Y3695000D02*
G01X3890000Y3010000D01*
G01X3300000Y3690000D02*
G01X3915000Y3075000D01*
G01X3682929Y1282929D02*
G01X3940000Y1540000D01*
G01X3940000Y3155000D01*
G01X3400000Y3695000D01*
G01X3500000Y3690000D02*
G01X3965000Y3225000D01*
G01X3965000Y1450000D01*
G01X3705000Y1190000D01*
G01X3605000Y3695000D02*
G01X3990000Y3310000D01*
G01X3990000Y1280000D01*
G01X3805000Y1095000D01*
G01X3915000Y3075000D02*
G01X3915000Y1574999D01*
G01X3735001Y1395000D01*
G01X3605000Y1395000D01*
G01X3600000Y1390000D01*
G01X3890000Y3010000D02*
G01X3890000Y1650000D01*
G01X3730000Y1490000D01*
G01X3600000Y1490000D01*
G01X3840000Y2970000D02*
G01X3840000Y1780000D01*
G01X3750000Y1690000D01*
G01X3600000Y1690000D01*
G01X3790000Y1969922D02*
G01X3710079Y1890000D01*
G01X3600000Y1890000D01*
G01X3712363Y2927637D02*
G01X3712363Y2242363D01*
G01X3660000Y2190000D01*
G01X3600000Y2190000D01*
G01X3765000Y2932950D02*
G01X3765000Y2050000D01*
G01X3705000Y1990000D01*
G01X3600000Y1990000D01*
G01X3600000Y2090000D02*
G01X3680000Y2090000D01*
G01X3738094Y2148094D01*
G01X3738094Y2931906D01*
G54D28*
G01X910000Y3795000D02*
G01X895000Y3780000D01*
G01X895000Y3240000D01*
G54D30*
G01X3780000Y3895000D02*
G01X4680000Y2995000D01*
G54D25*
G01X2310000Y3795000D02*
G01X2210000Y3795000D01*
G01X2110000Y3795000D01*
G01X2010000Y3795000D01*
G01X1910000Y3795000D01*
G01X1810000Y3795000D01*
G01X1710000Y3795000D01*
G01X1610000Y3795000D01*
G01X1510000Y3795000D01*
G01X1410000Y3795000D01*
G01X1310000Y3795000D01*
G01X1210000Y3795000D01*
G01X1100000Y3795000D01*
G01X2410000Y3795000D02*
G01X2310000Y3795000D01*
G01X2510000Y3795000D02*
G01X2410000Y3795000D01*
G01X2610000Y3795000D02*
G01X2510000Y3795000D01*
G01X2710000Y3795000D02*
G01X2610000Y3795000D01*
G01X2810000Y3795000D02*
G01X2710000Y3795000D01*
G01X2910000Y3795000D02*
G01X2810000Y3795000D01*
G01X3010000Y3795000D02*
G01X2910000Y3795000D01*
G01X3110000Y3795000D02*
G01X3010000Y3795000D01*
G01X3210000Y3795000D02*
G01X3110000Y3795000D01*
G01X3310000Y3795000D02*
G01X3210000Y3795000D01*
G54D27*
G01X3220000Y3345000D02*
G01X2580000Y3345000D01*
G01X2300000Y3625000D01*
G01X2300000Y3695000D01*
G01X2400000Y3695000D02*
G01X2400000Y3625000D01*
G01X2655000Y3370000D01*
G01X3230000Y3370000D01*
G01X3245000Y3430000D02*
G01X2850000Y3430000D01*
G01X2600000Y3680000D01*
G01X2600000Y3695000D01*
G54D30*
G01X2300000Y3895000D02*
G01X2400000Y3895000D01*
G01X1000000Y3895000D02*
G01X1100000Y3895000D01*
G01X1200000Y3895000D01*
G01X1300000Y3895000D01*
G01X1400000Y3895000D01*
G01X1500000Y3895000D01*
G01X1600000Y3895000D01*
G01X1700000Y3895000D01*
G01X1800000Y3895000D01*
G01X1900000Y3895000D01*
G01X2000000Y3895000D01*
G01X2100000Y3895000D01*
G01X2200000Y3895000D01*
G01X2300000Y3895000D01*
G01X3600000Y3895000D02*
G01X3780000Y3895000D01*
G54D27*
G01X3050000Y1055000D02*
G01X3415000Y1055000D01*
G01X3270000Y1015000D02*
G01X3385000Y1015000D01*
G01X4395000Y2355000D02*
G01X4675666Y2355000D01*
G01X4680000Y2359334D01*
G54D30*
G01X4680000Y2995000D02*
G01X4680000Y2359334D01*
G01X4680000Y2220000D01*
G54D27*
G01X4395340Y1495000D02*
G01X4395340Y1449660D01*
G01X4530000Y1315000D01*
G01X4565000Y1315000D01*
G01X4575000Y1325000D01*
G54D30*
G01X1000000Y65000D02*
G01X1100000Y65000D01*
G01X1200000Y65000D01*
G54D25*
G01X776407Y1520207D02*
G01X776407Y128593D01*
G54D30*
G01X215000Y125000D02*
G01X780000Y125000D01*
G01X840000Y65000D01*
G01X1000000Y65000D01*
G01X3595000Y80000D02*
G01X3595000Y260000D01*
G54D25*
G01X3610000Y3795000D02*
G01X3500000Y3795000D01*
G01X3310000Y3795000D01*
G04 Track End*

M02*

